{
	"patcher" : 	{
		"fileversion" : 1,
		"appversion" : 		{
			"major" : 8,
			"minor" : 5,
			"revision" : 6,
			"architecture" : "x64",
			"modernui" : 1
		}
,
		"classnamespace" : "box",
		"rect" : [ 369.0, 86.0, 404.0, 393.0 ],
		"bglocked" : 0,
		"openinpresentation" : 1,
		"default_fontsize" : 11.0,
		"default_fontface" : 0,
		"default_fontname" : "Ableton Sans Medium Regular",
		"gridonopen" : 1,
		"gridsize" : [ 8.0, 8.0 ],
		"gridsnaponopen" : 1,
		"objectsnaponopen" : 1,
		"statusbarvisible" : 2,
		"toolbarvisible" : 1,
		"lefttoolbarpinned" : 2,
		"toptoolbarpinned" : 2,
		"righttoolbarpinned" : 2,
		"bottomtoolbarpinned" : 2,
		"toolbars_unpinned_last_save" : 15,
		"tallnewobj" : 0,
		"boxanimatetime" : 20,
		"enablehscroll" : 1,
		"enablevscroll" : 1,
		"devicewidth" : 0.0,
		"description" : "",
		"digest" : "",
		"tags" : "",
		"style" : "maxb-default",
		"subpatcher_template" : "maxb_default",
		"assistshowspatchername" : 0,
		"boxes" : [ 			{
				"box" : 				{
					"fontsize" : 17.577390667830198,
					"id" : "obj-55",
					"maxclass" : "comment",
					"numinlets" : 1,
					"numoutlets" : 0,
					"patching_rect" : [ 942.40002400000003, 756.0, 92.0, 28.0 ],
					"presentation" : 1,
					"presentation_rect" : [ 17.5, 22.0, 92.0, 28.0 ],
					"text" : "SHUFFLER",
					"textcolor" : [ 0.501960784313725, 0.501960784313725, 0.501960784313725, 1.0 ]
				}

			}
, 			{
				"box" : 				{
					"id" : "obj-54",
					"maxclass" : "newobj",
					"numinlets" : 1,
					"numoutlets" : 0,
					"patching_rect" : [ 693.5, 812.0, 41.0, 22.0 ],
					"text" : "out~ 8"
				}

			}
, 			{
				"box" : 				{
					"id" : "obj-45",
					"maxclass" : "newobj",
					"numinlets" : 1,
					"numoutlets" : 0,
					"patching_rect" : [ 647.0, 812.0, 41.0, 22.0 ],
					"text" : "out~ 7"
				}

			}
, 			{
				"box" : 				{
					"id" : "obj-39",
					"maxclass" : "newobj",
					"numinlets" : 1,
					"numoutlets" : 0,
					"patching_rect" : [ 600.5, 812.0, 41.0, 22.0 ],
					"text" : "out~ 6"
				}

			}
, 			{
				"box" : 				{
					"id" : "obj-38",
					"maxclass" : "newobj",
					"numinlets" : 1,
					"numoutlets" : 0,
					"patching_rect" : [ 554.0, 812.0, 41.0, 22.0 ],
					"text" : "out~ 5"
				}

			}
, 			{
				"box" : 				{
					"id" : "obj-36",
					"maxclass" : "newobj",
					"numinlets" : 1,
					"numoutlets" : 0,
					"patching_rect" : [ 507.5, 812.0, 41.0, 22.0 ],
					"text" : "out~ 4"
				}

			}
, 			{
				"box" : 				{
					"id" : "obj-34",
					"maxclass" : "newobj",
					"numinlets" : 1,
					"numoutlets" : 0,
					"patching_rect" : [ 461.0, 812.0, 41.0, 22.0 ],
					"text" : "out~ 3"
				}

			}
, 			{
				"box" : 				{
					"id" : "obj-33",
					"maxclass" : "newobj",
					"numinlets" : 1,
					"numoutlets" : 0,
					"patching_rect" : [ 414.5, 812.0, 41.0, 22.0 ],
					"text" : "out~ 2"
				}

			}
, 			{
				"box" : 				{
					"id" : "obj-32",
					"maxclass" : "newobj",
					"numinlets" : 1,
					"numoutlets" : 0,
					"patching_rect" : [ 368.0, 812.0, 41.0, 22.0 ],
					"text" : "out~ 1"
				}

			}
, 			{
				"box" : 				{
					"color" : [ 0.545098039215686, 0.313725490196078, 0.0, 1.0 ],
					"id" : "obj-31",
					"maxclass" : "newobj",
					"numinlets" : 1,
					"numoutlets" : 3,
					"outlettype" : [ "", "", "" ],
					"patching_rect" : [ 766.766666666665742, 442.0, 118.0, 22.0 ],
					"restore" : [ 6.0 ],
					"saved_object_attributes" : 					{
						"parameter_enable" : 0,
						"parameter_mappable" : 0
					}
,
					"text" : "pattr shuffler-envtype",
					"varname" : "shuffler-envtype"
				}

			}
, 			{
				"box" : 				{
					"color" : [ 0.545098039215686, 0.313725490196078, 0.0, 1.0 ],
					"id" : "obj-28",
					"maxclass" : "newobj",
					"numinlets" : 1,
					"numoutlets" : 3,
					"outlettype" : [ "", "", "" ],
					"patching_rect" : [ 908.90002400000003, 311.560059000000024, 108.0, 22.0 ],
					"restore" : [ 50.0, 20.0, 35.0, 15.0, 40.0, 10.0, 60.0, 30.0 ],
					"saved_object_attributes" : 					{
						"parameter_enable" : 0,
						"parameter_mappable" : 0
					}
,
					"text" : "pattr shuffler-proba",
					"varname" : "shuffler-proba"
				}

			}
, 			{
				"box" : 				{
					"color" : [ 0.545098039215686, 0.313725490196078, 0.0, 1.0 ],
					"id" : "obj-29",
					"maxclass" : "newobj",
					"numinlets" : 1,
					"numoutlets" : 3,
					"outlettype" : [ "", "", "" ],
					"patching_rect" : [ 373.0, 310.060059000000024, 124.0, 22.0 ],
					"restore" : [ 90.0, 90.0, 90.0, 90.0, 90.0, 90.0, 90.0, 90.0 ],
					"saved_object_attributes" : 					{
						"parameter_enable" : 0,
						"parameter_mappable" : 0
					}
,
					"text" : "pattr shuffler-feedback",
					"varname" : "shuffler-feedback"
				}

			}
, 			{
				"box" : 				{
					"color" : [ 0.545098039215686, 0.313725490196078, 0.0, 1.0 ],
					"id" : "obj-27",
					"maxclass" : "newobj",
					"numinlets" : 1,
					"numoutlets" : 3,
					"outlettype" : [ "", "", "" ],
					"patching_rect" : [ 920.90002400000003, 117.0, 110.0, 22.0 ],
					"restore" : [ 190.0, 100.0, 150.0, 110.0, 180.0, 210.0, 140.0, 160.0 ],
					"saved_object_attributes" : 					{
						"parameter_enable" : 0,
						"parameter_mappable" : 0
					}
,
					"text" : "pattr shuffler-delays",
					"varname" : "shuffler-delays"
				}

			}
, 			{
				"box" : 				{
					"color" : [ 0.545098039215686, 0.313725490196078, 0.0, 1.0 ],
					"id" : "obj-21",
					"maxclass" : "newobj",
					"numinlets" : 1,
					"numoutlets" : 3,
					"outlettype" : [ "", "", "" ],
					"patching_rect" : [ 385.0, 115.5, 109.0, 22.0 ],
					"restore" : [ 60.0, 30.0, 80.0, 45.0, 70.0, 25.0, 40.0, 70.0 ],
					"saved_object_attributes" : 					{
						"parameter_enable" : 0,
						"parameter_mappable" : 0
					}
,
					"text" : "pattr shuffler-grains",
					"varname" : "shuffler-grains"
				}

			}
, 			{
				"box" : 				{
					"fontname" : "Arial",
					"fontsize" : 11.0,
					"id" : "obj-239",
					"maxclass" : "newobj",
					"numinlets" : 2,
					"numoutlets" : 1,
					"outlettype" : [ "" ],
					"patching_rect" : [ 196.90002400000003, 535.370849000000021, 39.0, 21.0 ],
					"text" : "SOR"
				}

			}
, 			{
				"box" : 				{
					"align" : 1,
					"bgcolor" : [ 0.0, 0.0, 0.0, 0.57 ],
					"bgfillcolor_angle" : 270.0,
					"bgfillcolor_autogradient" : 0,
					"bgfillcolor_color" : [ 0.0, 0.0, 0.0, 0.57 ],
					"bgfillcolor_color1" : [ 0.376471, 0.384314, 0.4, 1.0 ],
					"bgfillcolor_color2" : [ 0.290196, 0.309804, 0.301961, 1.0 ],
					"bgfillcolor_proportion" : 0.39,
					"bgfillcolor_type" : "color",
					"elementcolor" : [ 0.803922, 0.898039, 0.909804, 1.0 ],
					"fontface" : 0,
					"fontsize" : 9.0,
					"id" : "obj-240",
					"items" : [ "S", ",", "O", ",", "R" ],
					"maxclass" : "umenu",
					"numinlets" : 1,
					"numoutlets" : 3,
					"outlettype" : [ "int", "", "" ],
					"parameter_enable" : 0,
					"patching_rect" : [ 196.90002400000003, 507.870849000000021, 37.0, 19.0 ],
					"presentation" : 1,
					"presentation_rect" : [ 24.5, 141.0, 37.5, 19.0 ],
					"textcolor" : [ 1.0, 1.0, 1.0, 1.0 ],
					"textjustification" : 1
				}

			}
, 			{
				"box" : 				{
					"fontname" : "Arial",
					"fontsize" : 11.0,
					"id" : "obj-241",
					"maxclass" : "newobj",
					"numinlets" : 1,
					"numoutlets" : 4,
					"outlettype" : [ "", "", "", "" ],
					"patching_rect" : [ 196.90002400000003, 562.870849000000021, 62.0, 21.0 ],
					"restore" : 					{
						"rnbo~" : [ 							{
								"__sps" : 								{
									"sfldel-core[1]" : 									{

									}
,
									"sfldel-core[2]" : 									{

									}
,
									"sfldel-core" : 									{

									}
,
									"sfldel-core[3]" : 									{

									}
,
									"sfldel-core[4]" : 									{

									}
,
									"sfldel-core[5]" : 									{

									}
,
									"sfldel-core[6]" : 									{

									}
,
									"sfldel-core[7]" : 									{

									}

								}
,
								"__presetid" : "rnbo"
							}
 ]
					}
,
					"text" : "autopattr",
					"varname" : "u245028712"
				}

			}
, 			{
				"box" : 				{
					"bgmode" : 0,
					"border" : 0,
					"clickthrough" : 0,
					"enablehscroll" : 0,
					"enablevscroll" : 0,
					"id" : "obj-14",
					"lockeddragscroll" : 1,
					"lockedsize" : 0,
					"maxclass" : "bpatcher",
					"name" : "m-managepattr.maxpat",
					"numinlets" : 3,
					"numoutlets" : 2,
					"offset" : [ 1.0, 1.0 ],
					"outlettype" : [ "open", "" ],
					"patching_rect" : [ 898.90002400000003, 581.870849000000021, 41.0, 90.0 ],
					"presentation" : 1,
					"presentation_rect" : [ 23.5, 52.0, 41.0, 89.0 ],
					"viewvisibility" : 1
				}

			}
, 			{
				"box" : 				{
					"fontname" : "Ableton Sans Medium",
					"fontsize" : 11.0,
					"id" : "obj-19",
					"maxclass" : "newobj",
					"numinlets" : 1,
					"numoutlets" : 1,
					"outlettype" : [ "" ],
					"patching_rect" : [ 898.90002400000003, 680.0, 224.0, 22.0 ],
					"saved_object_attributes" : 					{
						"client_rect" : [ 333, 87, 1129, 445 ],
						"parameter_enable" : 0,
						"parameter_mappable" : 0,
						"storage_rect" : [ 220, 49, 871, 244 ]
					}
,
					"text" : "pattrstorage @savemode 0 @autorestore 0",
					"varname" : "u233021170"
				}

			}
, 			{
				"box" : 				{
					"fontname" : "Ableton Sans Medium",
					"fontsize" : 11.0,
					"id" : "obj-20",
					"maxclass" : "newobj",
					"numinlets" : 1,
					"numoutlets" : 1,
					"outlettype" : [ "" ],
					"patching_rect" : [ 920.90002400000003, 552.826172000000042, 143.0, 22.0 ],
					"text" : "loadmess multishuffler.json"
				}

			}
, 			{
				"box" : 				{
					"bgcolor" : [ 1.0, 1.0, 1.0, 0.0 ],
					"fontface" : 0,
					"fontname" : "Ableton Sans Medium Regular",
					"fontsize" : 9.0,
					"htricolor" : [ 0.87, 0.82, 0.24, 1.0 ],
					"id" : "obj-10",
					"maxclass" : "number",
					"numinlets" : 1,
					"numoutlets" : 2,
					"outlettype" : [ "", "bang" ],
					"parameter_enable" : 0,
					"patching_rect" : [ 886.635187637969466, 309.0, 25.0, 19.0 ],
					"presentation" : 1,
					"presentation_rect" : [ 369.026671999999962, 332.774993999999992, 26.0, 19.0 ],
					"textcolor" : [ 0.501960784313725, 0.501960784313725, 0.501960784313725, 1.0 ],
					"triangle" : 0,
					"tricolor" : [ 0.75, 0.75, 0.75, 1.0 ]
				}

			}
, 			{
				"box" : 				{
					"bgcolor" : [ 1.0, 1.0, 1.0, 0.0 ],
					"fontface" : 0,
					"fontname" : "Ableton Sans Medium Regular",
					"fontsize" : 9.0,
					"htricolor" : [ 0.87, 0.82, 0.24, 1.0 ],
					"id" : "obj-11",
					"maxclass" : "number",
					"numinlets" : 1,
					"numoutlets" : 2,
					"outlettype" : [ "", "bang" ],
					"parameter_enable" : 0,
					"patching_rect" : [ 853.100000000000364, 309.0, 24.0, 19.0 ],
					"presentation" : 1,
					"presentation_rect" : [ 369.026671999999962, 314.149993999999992, 26.0, 19.0 ],
					"textcolor" : [ 0.501960784313725, 0.501960784313725, 0.501960784313725, 1.0 ],
					"triangle" : 0,
					"tricolor" : [ 0.75, 0.75, 0.75, 1.0 ]
				}

			}
, 			{
				"box" : 				{
					"bgcolor" : [ 1.0, 1.0, 1.0, 0.0 ],
					"fontface" : 0,
					"fontname" : "Ableton Sans Medium Regular",
					"fontsize" : 9.0,
					"htricolor" : [ 0.87, 0.82, 0.24, 1.0 ],
					"id" : "obj-12",
					"maxclass" : "number",
					"numinlets" : 1,
					"numoutlets" : 2,
					"outlettype" : [ "", "bang" ],
					"parameter_enable" : 0,
					"patching_rect" : [ 346.635187637969352, 310.060059000000024, 25.0, 19.0 ],
					"presentation" : 1,
					"presentation_rect" : [ 226.026671999999991, 331.149993999999992, 27.0, 19.0 ],
					"textcolor" : [ 0.501960784313725, 0.501960784313725, 0.501960784313725, 1.0 ],
					"triangle" : 0,
					"tricolor" : [ 0.75, 0.75, 0.75, 1.0 ]
				}

			}
, 			{
				"box" : 				{
					"bgcolor" : [ 1.0, 1.0, 1.0, 0.0 ],
					"fontface" : 0,
					"fontname" : "Ableton Sans Medium Regular",
					"fontsize" : 9.0,
					"htricolor" : [ 0.87, 0.82, 0.24, 1.0 ],
					"id" : "obj-13",
					"maxclass" : "number",
					"numinlets" : 1,
					"numoutlets" : 2,
					"outlettype" : [ "", "bang" ],
					"parameter_enable" : 0,
					"patching_rect" : [ 313.10000000000025, 310.060059000000024, 24.0, 19.0 ],
					"presentation" : 1,
					"presentation_rect" : [ 226.026671999999991, 312.899993999999992, 27.0, 19.0 ],
					"textcolor" : [ 0.501960784313725, 0.501960784313725, 0.501960784313725, 1.0 ],
					"triangle" : 0,
					"tricolor" : [ 0.75, 0.75, 0.75, 1.0 ]
				}

			}
, 			{
				"box" : 				{
					"bgcolor" : [ 1.0, 1.0, 1.0, 0.0 ],
					"fontface" : 0,
					"fontname" : "Ableton Sans Medium Regular",
					"fontsize" : 9.0,
					"htricolor" : [ 0.87, 0.82, 0.24, 1.0 ],
					"id" : "obj-7",
					"maxclass" : "number",
					"maximum" : 800,
					"minimum" : 0,
					"numinlets" : 1,
					"numoutlets" : 2,
					"outlettype" : [ "", "bang" ],
					"parameter_enable" : 0,
					"patching_rect" : [ 886.825607064017731, 117.0, 25.0, 19.0 ],
					"presentation" : 1,
					"presentation_rect" : [ 359.026671999999962, 152.0, 32.0, 19.0 ],
					"textcolor" : [ 0.501960784313725, 0.501960784313725, 0.501960784313725, 1.0 ],
					"triangle" : 0,
					"tricolor" : [ 0.75, 0.75, 0.75, 1.0 ]
				}

			}
, 			{
				"box" : 				{
					"bgcolor" : [ 1.0, 1.0, 1.0, 0.0 ],
					"fontface" : 0,
					"fontname" : "Ableton Sans Medium Regular",
					"fontsize" : 9.0,
					"htricolor" : [ 0.87, 0.82, 0.24, 1.0 ],
					"id" : "obj-8",
					"maxclass" : "number",
					"maximum" : 800,
					"minimum" : 0,
					"numinlets" : 1,
					"numoutlets" : 2,
					"outlettype" : [ "", "bang" ],
					"parameter_enable" : 0,
					"patching_rect" : [ 853.112671081677718, 117.0, 24.0, 19.0 ],
					"presentation" : 1,
					"presentation_rect" : [ 359.026671999999962, 135.0, 32.0, 19.0 ],
					"textcolor" : [ 0.501960784313725, 0.501960784313725, 0.501960784313725, 1.0 ],
					"triangle" : 0,
					"tricolor" : [ 0.75, 0.75, 0.75, 1.0 ]
				}

			}
, 			{
				"box" : 				{
					"bgcolor" : [ 1.0, 1.0, 1.0, 0.0 ],
					"fontface" : 0,
					"fontname" : "Ableton Sans Medium Regular",
					"fontsize" : 9.0,
					"htricolor" : [ 0.87, 0.82, 0.24, 1.0 ],
					"id" : "obj-1",
					"maxclass" : "number",
					"maximum" : 800,
					"minimum" : 2,
					"numinlets" : 1,
					"numoutlets" : 2,
					"outlettype" : [ "", "bang" ],
					"parameter_enable" : 0,
					"patching_rect" : [ 346.635187637969409, 118.060059000000024, 25.0, 19.0 ],
					"presentation" : 1,
					"presentation_rect" : [ 220.026671999999991, 150.625, 32.0, 19.0 ],
					"textcolor" : [ 0.501960784313725, 0.501960784313725, 0.501960784313725, 1.0 ],
					"triangle" : 0,
					"tricolor" : [ 0.75, 0.75, 0.75, 1.0 ]
				}

			}
, 			{
				"box" : 				{
					"bgcolor" : [ 1.0, 1.0, 1.0, 0.0 ],
					"fontface" : 0,
					"fontname" : "Ableton Sans Medium Regular",
					"fontsize" : 9.0,
					"htricolor" : [ 0.87, 0.82, 0.24, 1.0 ],
					"id" : "obj-5",
					"maxclass" : "number",
					"maximum" : 800,
					"minimum" : 2,
					"numinlets" : 1,
					"numoutlets" : 2,
					"outlettype" : [ "", "bang" ],
					"parameter_enable" : 0,
					"patching_rect" : [ 313.10000000000025, 118.060059000000024, 24.0, 19.0 ],
					"presentation" : 1,
					"presentation_rect" : [ 220.026671999999991, 132.25, 32.0, 19.0 ],
					"textcolor" : [ 0.501960784313725, 0.501960784313725, 0.501960784313725, 1.0 ],
					"triangle" : 0,
					"tricolor" : [ 0.75, 0.75, 0.75, 1.0 ]
				}

			}
, 			{
				"box" : 				{
					"color" : [ 0.545098039215686, 0.313725490196078, 0.0, 1.0 ],
					"id" : "obj-84",
					"maxclass" : "newobj",
					"numinlets" : 2,
					"numoutlets" : 2,
					"outlettype" : [ "", "int" ],
					"patching_rect" : [ 406.599999999999056, 604.0, 144.0, 22.0 ],
					"text" : "m-meg shuffledel-vol @hint"
				}

			}
, 			{
				"box" : 				{
					"id" : "obj-83",
					"maxclass" : "newobj",
					"numinlets" : 1,
					"numoutlets" : 3,
					"outlettype" : [ "", "int", "int" ],
					"patching_rect" : [ 403.433333333332541, 669.460000000000036, 44.0, 22.0 ],
					"text" : "change"
				}

			}
, 			{
				"box" : 				{
					"id" : "obj-82",
					"maxclass" : "toggle",
					"numinlets" : 1,
					"numoutlets" : 1,
					"outlettype" : [ "int" ],
					"parameter_enable" : 0,
					"patching_rect" : [ 402.599999999999056, 695.919999999999959, 24.0, 24.0 ]
				}

			}
, 			{
				"box" : 				{
					"id" : "obj-80",
					"maxclass" : "message",
					"numinlets" : 2,
					"numoutlets" : 1,
					"outlettype" : [ "" ],
					"patching_rect" : [ 402.599999999999056, 724.059999999999945, 49.0, 22.0 ],
					"text" : "mute $1"
				}

			}
, 			{
				"box" : 				{
					"id" : "obj-74",
					"maxclass" : "newobj",
					"numinlets" : 1,
					"numoutlets" : 3,
					"outlettype" : [ "int", "int", "int" ],
					"patching_rect" : [ 402.599999999999056, 750.519999999999982, 54.0, 22.0 ],
					"text" : "thispoly~"
				}

			}
, 			{
				"box" : 				{
					"id" : "obj-73",
					"maxclass" : "newobj",
					"numinlets" : 2,
					"numoutlets" : 1,
					"outlettype" : [ "int" ],
					"patching_rect" : [ 403.433333333332541, 643.0, 34.0, 22.0 ],
					"text" : "== 0."
				}

			}
, 			{
				"box" : 				{
					"color" : [ 0.070588235294118, 0.545098039215686, 0.0, 1.0 ],
					"id" : "obj-70",
					"maxclass" : "newobj",
					"numinlets" : 1,
					"numoutlets" : 0,
					"patching_rect" : [ 291.599999999999284, 870.0, 197.0, 22.0 ],
					"text" : "mc.send~ from-shuffledelay @chans 8"
				}

			}
, 			{
				"box" : 				{
					"id" : "obj-69",
					"linecount" : 2,
					"maxclass" : "newobj",
					"numinlets" : 8,
					"numoutlets" : 1,
					"outlettype" : [ "multichannelsignal" ],
					"patching_rect" : [ 291.599999999999284, 812.0, 68.0, 35.0 ],
					"text" : "mc.pack~ 8 @chans 8"
				}

			}
, 			{
				"box" : 				{
					"id" : "obj-51",
					"maxclass" : "comment",
					"numinlets" : 1,
					"numoutlets" : 0,
					"patching_rect" : [ 709.099999999999, 666.0, 75.0, 20.0 ],
					"presentation" : 1,
					"presentation_rect" : [ 283.03454499999998, 187.5, 75.0, 20.0 ],
					"text" : "PROBABILITY",
					"textcolor" : [ 0.501960784313725, 0.501960784313725, 0.501960784313725, 1.0 ]
				}

			}
, 			{
				"box" : 				{
					"id" : "obj-52",
					"maxclass" : "comment",
					"numinlets" : 1,
					"numoutlets" : 0,
					"patching_rect" : [ 709.099999999999, 689.0, 63.0, 20.0 ],
					"presentation" : 1,
					"presentation_rect" : [ 149.526672000000019, 187.5, 63.0, 20.0 ],
					"text" : "FEEDBACK",
					"textcolor" : [ 0.501960784313725, 0.501960784313725, 0.501960784313725, 1.0 ]
				}

			}
, 			{
				"box" : 				{
					"id" : "obj-49",
					"maxclass" : "comment",
					"numinlets" : 1,
					"numoutlets" : 0,
					"patching_rect" : [ 709.099999999999, 736.0, 41.0, 20.0 ],
					"presentation" : 1,
					"presentation_rect" : [ 161.518799000000001, 5.0, 41.0, 20.0 ],
					"text" : "GRAIN",
					"textcolor" : [ 0.501960784313725, 0.501960784313725, 0.501960784313725, 1.0 ]
				}

			}
, 			{
				"box" : 				{
					"id" : "obj-47",
					"maxclass" : "comment",
					"numinlets" : 1,
					"numoutlets" : 0,
					"patching_rect" : [ 709.099999999999, 714.0, 41.0, 20.0 ],
					"presentation" : 1,
					"presentation_rect" : [ 298.526671999999962, 5.0, 41.0, 20.0 ],
					"text" : "DELAY",
					"textcolor" : [ 0.501960784313725, 0.501960784313725, 0.501960784313725, 1.0 ]
				}

			}
, 			{
				"box" : 				{
					"channels" : 8,
					"focusbordercolor" : [ 0.313725490196078, 0.313725490196078, 0.313725490196078, 0.0 ],
					"fontsize" : 11.0,
					"hint" : "shuffledel-vol",
					"id" : "obj-30",
					"lastchannelcount" : 0,
					"maxclass" : "live.gain~",
					"numinlets" : 8,
					"numoutlets" : 11,
					"outlettype" : [ "signal", "signal", "signal", "signal", "signal", "signal", "signal", "signal", "", "float", "list" ],
					"parameter_enable" : 1,
					"patching_rect" : [ 292.599999999999284, 552.0, 87.0, 170.0 ],
					"presentation" : 1,
					"presentation_rect" : [ 17.5, 171.5, 73.0, 146.0 ],
					"relative" : 1,
					"saved_attribute_attributes" : 					{
						"focusbordercolor" : 						{
							"expression" : ""
						}
,
						"textcolor" : 						{
							"expression" : ""
						}
,
						"trioncolor" : 						{
							"expression" : ""
						}
,
						"valueof" : 						{
							"parameter_initial" : [ -70 ],
							"parameter_initial_enable" : 1,
							"parameter_linknames" : 1,
							"parameter_longname" : "live.gain~[1]",
							"parameter_mmax" : 6.0,
							"parameter_mmin" : -70.0,
							"parameter_shortname" : "live.gain~",
							"parameter_type" : 0,
							"parameter_unitstyle" : 4
						}

					}
,
					"showname" : 0,
					"textcolor" : [ 0.501960784313725, 0.501960784313725, 0.501960784313725, 1.0 ],
					"trioncolor" : [ 0.501960784313725, 0.501960784313725, 0.501960784313725, 1.0 ],
					"varname" : "live.gain~[1]"
				}

			}
, 			{
				"box" : 				{
					"fontname" : "Ableton Sans Medium",
					"id" : "obj-4",
					"maxclass" : "newobj",
					"numinlets" : 5,
					"numoutlets" : 8,
					"outlettype" : [ "signal", "signal", "signal", "signal", "signal", "signal", "signal", "signal" ],
					"patching_rect" : [ 292.599999999999056, 446.0, 87.000000000000284, 22.0 ],
					"saved_object_attributes" : 					{
						"parameter_enable" : 0,
						"parameter_mappable" : 0
					}
,
					"text" : "multishuffler~",
					"varname" : "rnbo~"
				}

			}
, 			{
				"box" : 				{
					"fontname" : "Ableton Sans Medium",
					"id" : "obj-50",
					"maxclass" : "message",
					"numinlets" : 2,
					"numoutlets" : 1,
					"outlettype" : [ "" ],
					"patching_rect" : [ 827.099999999999, 658.0, 55.0, 22.0 ],
					"text" : "set carre"
				}

			}
, 			{
				"box" : 				{
					"id" : "obj-48",
					"maxclass" : "button",
					"numinlets" : 1,
					"numoutlets" : 1,
					"outlettype" : [ "bang" ],
					"parameter_enable" : 0,
					"patching_rect" : [ 827.099999999999, 632.0, 24.0, 24.0 ]
				}

			}
, 			{
				"box" : 				{
					"bgcolor" : [ 0.2, 0.2, 0.2, 0.0 ],
					"buffername" : "carre",
					"fontname" : "Ableton Sans Medium",
					"fontsize" : 11.0,
					"gridcolor" : [ 0.349019607843137, 0.349019607843137, 0.349019607843137, 0.0 ],
					"id" : "obj-46",
					"ignoreclick" : 1,
					"maxclass" : "waveform~",
					"numinlets" : 5,
					"numoutlets" : 6,
					"outlettype" : [ "float", "float", "float", "float", "list", "" ],
					"patching_rect" : [ 827.099999999999, 682.0, 55.0, 26.0 ],
					"presentation" : 1,
					"presentation_rect" : [ 12.138511249999937, 326.333333333333371, 89.776321499999938, 66.0 ],
					"quiet" : 1,
					"selectioncolor" : [ 0.380392156862745, 0.925490196078431, 0.349019607843137, 0.0 ],
					"waveformcolor" : [ 0.501960784313725, 0.501960784313725, 0.501960784313725, 1.0 ]
				}

			}
, 			{
				"box" : 				{
					"bgcolor" : [ 1.0, 1.0, 1.0, 0.0 ],
					"fontface" : 0,
					"fontname" : "Ableton Sans Medium Regular",
					"fontsize" : 9.0,
					"htricolor" : [ 0.87, 0.82, 0.24, 1.0 ],
					"id" : "obj-18",
					"maxclass" : "number",
					"maximum" : 800,
					"minimum" : 0,
					"numinlets" : 1,
					"numoutlets" : 2,
					"outlettype" : [ "", "bang" ],
					"parameter_enable" : 0,
					"patching_rect" : [ 368.026672000000019, 45.0, 15.677000045776367, 19.0 ],
					"presentation" : 1,
					"presentation_rect" : [ 114.026672000000005, 171.5, 32.0, 19.0 ],
					"textcolor" : [ 0.501960784313725, 0.501960784313725, 0.501960784313725, 1.0 ],
					"triangle" : 0,
					"tricolor" : [ 0.75, 0.75, 0.75, 1.0 ]
				}

			}
, 			{
				"box" : 				{
					"bgcolor" : [ 1.0, 1.0, 1.0, 0.0 ],
					"fontface" : 0,
					"fontname" : "Ableton Sans Medium Regular",
					"fontsize" : 9.0,
					"htricolor" : [ 0.87, 0.82, 0.24, 1.0 ],
					"id" : "obj-17",
					"maxclass" : "number",
					"maximum" : 100,
					"minimum" : 0,
					"numinlets" : 1,
					"numoutlets" : 2,
					"outlettype" : [ "", "bang" ],
					"parameter_enable" : 0,
					"patching_rect" : [ 908.0, 229.0, 15.677000045776367, 19.0 ],
					"presentation" : 1,
					"presentation_rect" : [ 256.026671999999962, 354.399993999999992, 26.0, 19.0 ],
					"textcolor" : [ 0.501960784313725, 0.501960784313725, 0.501960784313725, 1.0 ],
					"triangle" : 0,
					"tricolor" : [ 0.75, 0.75, 0.75, 1.0 ]
				}

			}
, 			{
				"box" : 				{
					"bgcolor" : [ 1.0, 1.0, 1.0, 0.0 ],
					"fontface" : 0,
					"fontname" : "Ableton Sans Medium Regular",
					"fontsize" : 9.0,
					"htricolor" : [ 0.87, 0.82, 0.24, 1.0 ],
					"id" : "obj-16",
					"maxclass" : "number",
					"maximum" : 800,
					"minimum" : 0,
					"numinlets" : 1,
					"numoutlets" : 2,
					"outlettype" : [ "", "bang" ],
					"parameter_enable" : 0,
					"patching_rect" : [ 908.0, 45.0, 15.677000045776367, 19.0 ],
					"presentation" : 1,
					"presentation_rect" : [ 256.026671999999962, 170.5, 32.0, 19.0 ],
					"textcolor" : [ 0.501960784313725, 0.501960784313725, 0.501960784313725, 1.0 ],
					"triangle" : 0,
					"tricolor" : [ 0.75, 0.75, 0.75, 1.0 ]
				}

			}
, 			{
				"box" : 				{
					"bgcolor" : [ 1.0, 1.0, 1.0, 0.0 ],
					"fontface" : 0,
					"fontname" : "Ableton Sans Medium Regular",
					"fontsize" : 9.0,
					"htricolor" : [ 0.87, 0.82, 0.24, 1.0 ],
					"id" : "obj-15",
					"maxclass" : "number",
					"maximum" : 100,
					"minimum" : -100,
					"numinlets" : 1,
					"numoutlets" : 2,
					"outlettype" : [ "", "bang" ],
					"parameter_enable" : 0,
					"patching_rect" : [ 373.0, 229.0, 15.677000045776367, 19.0 ],
					"presentation" : 1,
					"presentation_rect" : [ 113.026672000000005, 355.399993999999992, 26.0, 19.0 ],
					"textcolor" : [ 0.501960784313725, 0.501960784313725, 0.501960784313725, 1.0 ],
					"triangle" : 0,
					"tricolor" : [ 0.75, 0.75, 0.75, 1.0 ]
				}

			}
, 			{
				"box" : 				{
					"activebgcolor" : [ 0.052295487374067, 0.059095919132233, 0.066081933677197, 1.0 ],
					"focusbordercolor" : [ 0.052295487374067, 0.059095919132233, 0.066081933677197, 1.0 ],
					"fontsize" : 11.0,
					"hltcolor" : [ 0.317647, 0.654902, 0.976471, 1.0 ],
					"hlttextcolor" : [ 0.050980392156863, 0.058823529411765, 0.066666666666667, 1.0 ],
					"id" : "obj-160",
					"maxclass" : "live.menu",
					"numinlets" : 1,
					"numoutlets" : 3,
					"outlettype" : [ "", "", "float" ],
					"parameter_enable" : 1,
					"patching_rect" : [ 709.099999999999, 437.0, 42.0, 17.0 ],
					"presentation" : 1,
					"presentation_rect" : [ 12.138511249999937, 319.0, 89.776321499999938, 17.0 ],
					"saved_attribute_attributes" : 					{
						"activebgcolor" : 						{
							"expression" : ""
						}
,
						"bordercolor" : 						{
							"expression" : ""
						}
,
						"focusbordercolor" : 						{
							"expression" : ""
						}
,
						"hltcolor" : 						{
							"expression" : ""
						}
,
						"hlttextcolor" : 						{
							"expression" : ""
						}
,
						"textcolor" : 						{
							"expression" : ""
						}
,
						"valueof" : 						{
							"parameter_enum" : [ "UNCHANGED", "hanning", "carre", "hanninglong", "cosine", "tri", "squaresoft", "sawdown", "sawup", "square" ],
							"parameter_initial" : [ 6.0 ],
							"parameter_initial_enable" : 1,
							"parameter_linknames" : 1,
							"parameter_longname" : "shuffle_windows",
							"parameter_mmax" : 9,
							"parameter_shortname" : "shuffle_windows",
							"parameter_type" : 2
						}

					}
,
					"textcolor" : [ 0.313725490196078, 0.313725490196078, 0.313725490196078, 1.0 ],
					"varname" : "shuffle_windows"
				}

			}
, 			{
				"box" : 				{
					"id" : "obj-147",
					"maxclass" : "newobj",
					"numinlets" : 9,
					"numoutlets" : 2,
					"outlettype" : [ "", "" ],
					"patching_rect" : [ 75.0, 350.060059000000024, 291.0, 22.0 ],
					"text" : "sfldel-fmout"
				}

			}
, 			{
				"box" : 				{
					"id" : "obj-135",
					"maxclass" : "newobj",
					"numinlets" : 1,
					"numoutlets" : 9,
					"outlettype" : [ "", "", "", "", "", "", "", "", "" ],
					"patching_rect" : [ 75.0, 229.0, 291.0, 22.0 ],
					"text" : "sfldel-fmin #1-sfldel-feedback"
				}

			}
, 			{
				"box" : 				{
					"id" : "obj-117",
					"maxclass" : "newobj",
					"numinlets" : 9,
					"numoutlets" : 2,
					"outlettype" : [ "", "" ],
					"patching_rect" : [ 75.0, 158.060059000000024, 291.0, 22.0 ],
					"text" : "sfldel-fmout"
				}

			}
, 			{
				"box" : 				{
					"fontname" : "Arial",
					"fontsize" : 12.0,
					"id" : "obj-107",
					"maxclass" : "newobj",
					"numinlets" : 1,
					"numoutlets" : 9,
					"outlettype" : [ "", "", "", "", "", "", "", "", "" ],
					"patching_rect" : [ 75.0, 45.0, 291.0, 22.0 ],
					"text" : "sfldel-fmin #1-sfldel-grains"
				}

			}
, 			{
				"box" : 				{
					"id" : "obj-86",
					"maxclass" : "newobj",
					"numinlets" : 1,
					"numoutlets" : 9,
					"outlettype" : [ "", "", "", "", "", "", "", "", "" ],
					"patching_rect" : [ 615.0, 229.0, 291.0, 22.0 ],
					"text" : "sfldel-fmin #1-sfldel-proba"
				}

			}
, 			{
				"box" : 				{
					"id" : "obj-56",
					"maxclass" : "newobj",
					"numinlets" : 1,
					"numoutlets" : 9,
					"outlettype" : [ "", "", "", "", "", "", "", "", "" ],
					"patching_rect" : [ 615.0, 45.0, 291.0, 22.0 ],
					"text" : "sfldel-fmin #1-sfldel-delays"
				}

			}
, 			{
				"box" : 				{
					"color" : [ 0.070588235294118, 0.545098039215686, 0.0, 1.0 ],
					"fontname" : "Ableton Sans Medium",
					"fontsize" : 11.0,
					"id" : "obj-37",
					"maxclass" : "newobj",
					"numinlets" : 1,
					"numoutlets" : 1,
					"outlettype" : [ "signal" ],
					"patching_rect" : [ 292.599999999999056, 401.0, 128.0, 22.0 ],
					"text" : "receive~ to-shuffledelay"
				}

			}
, 			{
				"box" : 				{
					"fontname" : "Ableton Sans Medium",
					"fontsize" : 11.0,
					"id" : "obj-26",
					"maxclass" : "newobj",
					"numinlets" : 1,
					"numoutlets" : 3,
					"outlettype" : [ "", "int", "int" ],
					"patching_rect" : [ 709.099999999999, 458.0, 47.0, 22.0 ],
					"text" : "change"
				}

			}
, 			{
				"box" : 				{
					"fontname" : "Ableton Sans Medium",
					"fontsize" : 11.0,
					"id" : "obj-9",
					"maxclass" : "newobj",
					"numinlets" : 2,
					"numoutlets" : 2,
					"outlettype" : [ "", "" ],
					"patching_rect" : [ 739.099999999999, 543.0, 76.0, 22.0 ],
					"text" : "route symbol"
				}

			}
, 			{
				"box" : 				{
					"coll_data" : 					{
						"count" : 9,
						"data" : [ 							{
								"key" : 1,
								"value" : [ "hanning.wav" ]
							}
, 							{
								"key" : 2,
								"value" : [ "carre.wav" ]
							}
, 							{
								"key" : 3,
								"value" : [ "hanninglong.wav" ]
							}
, 							{
								"key" : 4,
								"value" : [ "cosine.wav" ]
							}
, 							{
								"key" : 5,
								"value" : [ "tri.wav" ]
							}
, 							{
								"key" : 6,
								"value" : [ "squaresoft.wav" ]
							}
, 							{
								"key" : 7,
								"value" : [ "sawdown.wav" ]
							}
, 							{
								"key" : 8,
								"value" : [ "sawup.wav" ]
							}
, 							{
								"key" : 9,
								"value" : [ "square.wav" ]
							}
 ]
					}
,
					"fontname" : "Ableton Sans Medium",
					"fontsize" : 11.0,
					"id" : "obj-2",
					"maxclass" : "newobj",
					"numinlets" : 1,
					"numoutlets" : 4,
					"outlettype" : [ "", "", "", "" ],
					"patching_rect" : [ 739.099999999999, 514.0, 63.0, 22.0 ],
					"saved_object_attributes" : 					{
						"embed" : 1,
						"precision" : 6
					}
,
					"text" : "coll"
				}

			}
, 			{
				"box" : 				{
					"fontname" : "Arial",
					"fontsize" : 12.0,
					"id" : "obj-193",
					"maxclass" : "newobj",
					"numinlets" : 9,
					"numoutlets" : 2,
					"outlettype" : [ "", "" ],
					"patching_rect" : [ 615.0, 354.0, 291.000000000000114, 22.0 ],
					"text" : "sfldel-fmout"
				}

			}
, 			{
				"box" : 				{
					"fontname" : "Arial",
					"fontsize" : 12.0,
					"id" : "obj-182",
					"maxclass" : "newobj",
					"numinlets" : 9,
					"numoutlets" : 2,
					"outlettype" : [ "", "" ],
					"patching_rect" : [ 615.0, 158.060059000000024, 291.0, 22.0 ],
					"text" : "sfldel-fmout"
				}

			}
, 			{
				"box" : 				{
					"bgcolor" : [ 1.0, 1.0, 1.0, 0.0 ],
					"fontface" : 0,
					"fontname" : "Ableton Sans Medium Regular",
					"fontsize" : 9.0,
					"htricolor" : [ 0.87, 0.82, 0.24, 1.0 ],
					"id" : "obj-96",
					"maxclass" : "number",
					"numinlets" : 1,
					"numoutlets" : 2,
					"outlettype" : [ "", "bang" ],
					"parameter_enable" : 0,
					"patching_rect" : [ 818.924944812362128, 309.0, 25.0, 19.0 ],
					"presentation" : 1,
					"presentation_rect" : [ 369.026671999999962, 295.524993999999992, 26.0, 19.0 ],
					"textcolor" : [ 0.501960784313725, 0.501960784313725, 0.501960784313725, 1.0 ],
					"triangle" : 0,
					"tricolor" : [ 0.75, 0.75, 0.75, 1.0 ]
				}

			}
, 			{
				"box" : 				{
					"bgcolor" : [ 1.0, 1.0, 1.0, 0.0 ],
					"fontface" : 0,
					"fontname" : "Ableton Sans Medium Regular",
					"fontsize" : 9.0,
					"htricolor" : [ 0.87, 0.82, 0.24, 1.0 ],
					"id" : "obj-105",
					"maxclass" : "number",
					"numinlets" : 1,
					"numoutlets" : 2,
					"outlettype" : [ "", "bang" ],
					"parameter_enable" : 0,
					"patching_rect" : [ 785.389757174393026, 309.0, 24.0, 19.0 ],
					"presentation" : 1,
					"presentation_rect" : [ 369.026671999999962, 276.899993999999992, 26.0, 19.0 ],
					"textcolor" : [ 0.501960784313725, 0.501960784313725, 0.501960784313725, 1.0 ],
					"triangle" : 0,
					"tricolor" : [ 0.75, 0.75, 0.75, 1.0 ]
				}

			}
, 			{
				"box" : 				{
					"bgcolor" : [ 1.0, 1.0, 1.0, 0.0 ],
					"fontface" : 0,
					"fontname" : "Ableton Sans Medium Regular",
					"fontsize" : 9.0,
					"htricolor" : [ 0.87, 0.82, 0.24, 1.0 ],
					"id" : "obj-118",
					"maxclass" : "number",
					"maximum" : 800,
					"minimum" : 2,
					"numinlets" : 1,
					"numoutlets" : 2,
					"outlettype" : [ "", "bang" ],
					"parameter_enable" : 0,
					"patching_rect" : [ 278.924944812362071, 118.060059000000024, 25.0, 19.0 ],
					"presentation" : 1,
					"presentation_rect" : [ 220.026671999999991, 113.875, 32.0, 19.0 ],
					"textcolor" : [ 0.501960784313725, 0.501960784313725, 0.501960784313725, 1.0 ],
					"triangle" : 0,
					"tricolor" : [ 0.75, 0.75, 0.75, 1.0 ]
				}

			}
, 			{
				"box" : 				{
					"bgcolor" : [ 1.0, 1.0, 1.0, 0.0 ],
					"fontface" : 0,
					"fontname" : "Ableton Sans Medium Regular",
					"fontsize" : 9.0,
					"htricolor" : [ 0.87, 0.82, 0.24, 1.0 ],
					"id" : "obj-119",
					"maxclass" : "number",
					"maximum" : 800,
					"minimum" : 2,
					"numinlets" : 1,
					"numoutlets" : 2,
					"outlettype" : [ "", "bang" ],
					"parameter_enable" : 0,
					"patching_rect" : [ 245.38975717439294, 118.060059000000024, 24.0, 19.0 ],
					"presentation" : 1,
					"presentation_rect" : [ 220.026671999999991, 95.5, 32.0, 19.0 ],
					"textcolor" : [ 0.501960784313725, 0.501960784313725, 0.501960784313725, 1.0 ],
					"triangle" : 0,
					"tricolor" : [ 0.75, 0.75, 0.75, 1.0 ]
				}

			}
, 			{
				"box" : 				{
					"bgcolor" : [ 1.0, 1.0, 1.0, 0.0 ],
					"fontface" : 0,
					"fontname" : "Ableton Sans Medium Regular",
					"fontsize" : 9.0,
					"htricolor" : [ 0.87, 0.82, 0.24, 1.0 ],
					"id" : "obj-142",
					"maxclass" : "number",
					"numinlets" : 1,
					"numoutlets" : 2,
					"outlettype" : [ "", "bang" ],
					"parameter_enable" : 0,
					"patching_rect" : [ 278.924944812362014, 310.060059000000024, 25.0, 19.0 ],
					"presentation" : 1,
					"presentation_rect" : [ 226.026671999999991, 294.649993999999992, 27.0, 19.0 ],
					"textcolor" : [ 0.501960784313725, 0.501960784313725, 0.501960784313725, 1.0 ],
					"triangle" : 0,
					"tricolor" : [ 0.75, 0.75, 0.75, 1.0 ]
				}

			}
, 			{
				"box" : 				{
					"bgcolor" : [ 1.0, 1.0, 1.0, 0.0 ],
					"fontface" : 0,
					"fontname" : "Ableton Sans Medium Regular",
					"fontsize" : 9.0,
					"htricolor" : [ 0.87, 0.82, 0.24, 1.0 ],
					"id" : "obj-143",
					"maxclass" : "number",
					"numinlets" : 1,
					"numoutlets" : 2,
					"outlettype" : [ "", "bang" ],
					"parameter_enable" : 0,
					"patching_rect" : [ 245.389757174392884, 310.060059000000024, 24.0, 19.0 ],
					"presentation" : 1,
					"presentation_rect" : [ 226.026671999999991, 276.399993999999992, 27.0, 19.0 ],
					"textcolor" : [ 0.501960784313725, 0.501960784313725, 0.501960784313725, 1.0 ],
					"triangle" : 0,
					"tricolor" : [ 0.75, 0.75, 0.75, 1.0 ]
				}

			}
, 			{
				"box" : 				{
					"bgcolor" : [ 1.0, 1.0, 1.0, 0.0 ],
					"fontface" : 0,
					"fontname" : "Ableton Sans Medium Regular",
					"fontsize" : 9.0,
					"htricolor" : [ 0.87, 0.82, 0.24, 1.0 ],
					"id" : "obj-151",
					"maxclass" : "number",
					"maximum" : 800,
					"minimum" : 0,
					"numinlets" : 1,
					"numoutlets" : 2,
					"outlettype" : [ "", "bang" ],
					"parameter_enable" : 0,
					"patching_rect" : [ 819.825607064017731, 117.0, 25.0, 19.0 ],
					"presentation" : 1,
					"presentation_rect" : [ 359.026671999999962, 116.0, 32.0, 19.0 ],
					"textcolor" : [ 0.501960784313725, 0.501960784313725, 0.501960784313725, 1.0 ],
					"triangle" : 0,
					"tricolor" : [ 0.75, 0.75, 0.75, 1.0 ]
				}

			}
, 			{
				"box" : 				{
					"bgcolor" : [ 1.0, 1.0, 1.0, 0.0 ],
					"fontface" : 0,
					"fontname" : "Ableton Sans Medium Regular",
					"fontsize" : 9.0,
					"htricolor" : [ 0.87, 0.82, 0.24, 1.0 ],
					"id" : "obj-152",
					"maxclass" : "number",
					"maximum" : 800,
					"minimum" : 0,
					"numinlets" : 1,
					"numoutlets" : 2,
					"outlettype" : [ "", "bang" ],
					"parameter_enable" : 0,
					"patching_rect" : [ 786.112671081677718, 117.0, 24.0, 19.0 ],
					"presentation" : 1,
					"presentation_rect" : [ 359.026671999999962, 97.0, 32.0, 19.0 ],
					"textcolor" : [ 0.501960784313725, 0.501960784313725, 0.501960784313725, 1.0 ],
					"triangle" : 0,
					"tricolor" : [ 0.75, 0.75, 0.75, 1.0 ]
				}

			}
, 			{
				"box" : 				{
					"fontname" : "Ableton Sans Medium",
					"fontsize" : 11.0,
					"id" : "obj-94",
					"maxclass" : "newobj",
					"numinlets" : 2,
					"numoutlets" : 2,
					"outlettype" : [ "", "" ],
					"patching_rect" : [ 709.099999999999, 487.200012000000015, 48.0, 22.0 ],
					"text" : "route 0"
				}

			}
, 			{
				"box" : 				{
					"fontname" : "Ableton Sans Medium",
					"fontsize" : 11.0,
					"id" : "obj-95",
					"maxclass" : "newobj",
					"numinlets" : 1,
					"numoutlets" : 1,
					"outlettype" : [ "" ],
					"patching_rect" : [ 739.099999999999, 572.0, 93.0, 22.0 ],
					"text" : "prepend replace"
				}

			}
, 			{
				"box" : 				{
					"bgcolor" : [ 0.0, 0.0, 0.0, 1.0 ],
					"contdata" : 1,
					"ghostbar" : 50,
					"hint" : "grain occurence probability",
					"id" : "obj-71",
					"maxclass" : "multislider",
					"numinlets" : 1,
					"numoutlets" : 2,
					"orientation" : 0,
					"outlettype" : [ "", "" ],
					"parameter_enable" : 1,
					"patching_rect" : [ 615.0, 309.0, 37.0, 25.0 ],
					"presentation" : 1,
					"presentation_rect" : [ 257.534544999999923, 204.399993999999992, 101.0, 147.0 ],
					"saved_attribute_attributes" : 					{
						"valueof" : 						{
							"parameter_initial" : [ 50.0, 20.0, 35.0, 15.0, 40.0, 10.0, 60.0, 30.0 ],
							"parameter_initial_enable" : 1,
							"parameter_invisible" : 1,
							"parameter_longname" : "Shuff-Prob",
							"parameter_shortname" : "Shuff-Prob",
							"parameter_type" : 3
						}

					}
,
					"setminmax" : [ 0.0, 100.0 ],
					"size" : 8,
					"slidercolor" : [ 0.501960784313725, 0.501960784313725, 0.501960784313725, 1.0 ],
					"spacing" : 3,
					"varname" : "Shuff-Prob"
				}

			}
, 			{
				"box" : 				{
					"bgcolor" : [ 1.0, 1.0, 1.0, 0.0 ],
					"fontface" : 0,
					"fontname" : "Ableton Sans Medium Regular",
					"fontsize" : 9.0,
					"htricolor" : [ 0.87, 0.82, 0.24, 1.0 ],
					"id" : "obj-76",
					"maxclass" : "number",
					"numinlets" : 1,
					"numoutlets" : 2,
					"outlettype" : [ "", "bang" ],
					"parameter_enable" : 0,
					"patching_rect" : [ 751.10490066225168, 309.0, 25.0, 19.0 ],
					"presentation" : 1,
					"presentation_rect" : [ 369.026671999999962, 258.274993999999992, 26.0, 19.0 ],
					"textcolor" : [ 0.501960784313725, 0.501960784313725, 0.501960784313725, 1.0 ],
					"triangle" : 0,
					"tricolor" : [ 0.75, 0.75, 0.75, 1.0 ]
				}

			}
, 			{
				"box" : 				{
					"bgcolor" : [ 1.0, 1.0, 1.0, 0.0 ],
					"fontface" : 0,
					"fontname" : "Ableton Sans Medium Regular",
					"fontsize" : 9.0,
					"htricolor" : [ 0.87, 0.82, 0.24, 1.0 ],
					"id" : "obj-77",
					"maxclass" : "number",
					"numinlets" : 1,
					"numoutlets" : 2,
					"outlettype" : [ "", "bang" ],
					"parameter_enable" : 0,
					"patching_rect" : [ 717.569713024282578, 309.0, 24.0, 19.0 ],
					"presentation" : 1,
					"presentation_rect" : [ 369.026671999999962, 239.649993999999992, 26.0, 19.0 ],
					"textcolor" : [ 0.501960784313725, 0.501960784313725, 0.501960784313725, 1.0 ],
					"triangle" : 0,
					"tricolor" : [ 0.75, 0.75, 0.75, 1.0 ]
				}

			}
, 			{
				"box" : 				{
					"bgcolor" : [ 1.0, 1.0, 1.0, 0.0 ],
					"fontface" : 0,
					"fontname" : "Ableton Sans Medium Regular",
					"fontsize" : 9.0,
					"htricolor" : [ 0.87, 0.82, 0.24, 1.0 ],
					"id" : "obj-78",
					"maxclass" : "number",
					"numinlets" : 1,
					"numoutlets" : 2,
					"outlettype" : [ "", "bang" ],
					"parameter_enable" : 0,
					"patching_rect" : [ 683.284856512141346, 309.0, 25.0, 19.0 ],
					"presentation" : 1,
					"presentation_rect" : [ 369.026671999999962, 221.024993999999992, 26.0, 19.0 ],
					"textcolor" : [ 0.501960784313725, 0.501960784313725, 0.501960784313725, 1.0 ],
					"triangle" : 0,
					"tricolor" : [ 0.75, 0.75, 0.75, 1.0 ]
				}

			}
, 			{
				"box" : 				{
					"bgcolor" : [ 1.0, 1.0, 1.0, 0.0 ],
					"fontface" : 0,
					"fontname" : "Ableton Sans Medium Regular",
					"fontsize" : 9.0,
					"htricolor" : [ 0.87, 0.82, 0.24, 1.0 ],
					"id" : "obj-79",
					"maxclass" : "number",
					"numinlets" : 1,
					"numoutlets" : 2,
					"outlettype" : [ "", "bang" ],
					"parameter_enable" : 0,
					"patching_rect" : [ 649.0, 309.0, 25.0, 19.0 ],
					"presentation" : 1,
					"presentation_rect" : [ 370.534544999999866, 202.399993999999992, 26.0, 19.0 ],
					"textcolor" : [ 0.501960784313725, 0.501960784313725, 0.501960784313725, 1.0 ],
					"triangle" : 0,
					"tricolor" : [ 0.75, 0.75, 0.75, 1.0 ]
				}

			}
, 			{
				"box" : 				{
					"bgcolor" : [ 0.0, 0.0, 0.0, 1.0 ],
					"contdata" : 1,
					"ghostbar" : 50,
					"hint" : "size of the grain that is throw into the delay",
					"id" : "obj-53",
					"maxclass" : "multislider",
					"numinlets" : 1,
					"numoutlets" : 2,
					"orientation" : 0,
					"outlettype" : [ "", "" ],
					"parameter_enable" : 1,
					"patching_rect" : [ 75.0, 118.060059000000024, 37.0, 25.0 ],
					"presentation" : 1,
					"presentation_rect" : [ 114.026672000000005, 23.0, 106.0, 147.0 ],
					"saved_attribute_attributes" : 					{
						"valueof" : 						{
							"parameter_initial" : [ 60.0, 30.0, 80.0, 45.0, 70.0, 25.0, 40.0, 70.0 ],
							"parameter_initial_enable" : 1,
							"parameter_invisible" : 1,
							"parameter_longname" : "Shuff-Dur-time",
							"parameter_shortname" : "Shuff-Dur-time",
							"parameter_type" : 3
						}

					}
,
					"setminmax" : [ 2.0, 800.0 ],
					"size" : 8,
					"slidercolor" : [ 0.501960784313725, 0.501960784313725, 0.501960784313725, 1.0 ],
					"spacing" : 3,
					"varname" : "Shuff-Dur-time"
				}

			}
, 			{
				"box" : 				{
					"bgcolor" : [ 1.0, 1.0, 1.0, 0.0 ],
					"fontface" : 0,
					"fontname" : "Ableton Sans Medium Regular",
					"fontsize" : 9.0,
					"htricolor" : [ 0.87, 0.82, 0.24, 1.0 ],
					"id" : "obj-58",
					"maxclass" : "number",
					"maximum" : 800,
					"minimum" : 2,
					"numinlets" : 1,
					"numoutlets" : 2,
					"outlettype" : [ "", "bang" ],
					"parameter_enable" : 0,
					"patching_rect" : [ 211.104900662251623, 118.060059000000024, 25.0, 19.0 ],
					"presentation" : 1,
					"presentation_rect" : [ 220.026671999999991, 77.125, 32.0, 19.0 ],
					"textcolor" : [ 0.501960784313725, 0.501960784313725, 0.501960784313725, 1.0 ],
					"triangle" : 0,
					"tricolor" : [ 0.75, 0.75, 0.75, 1.0 ]
				}

			}
, 			{
				"box" : 				{
					"bgcolor" : [ 1.0, 1.0, 1.0, 0.0 ],
					"fontface" : 0,
					"fontname" : "Ableton Sans Medium Regular",
					"fontsize" : 9.0,
					"htricolor" : [ 0.87, 0.82, 0.24, 1.0 ],
					"id" : "obj-59",
					"maxclass" : "number",
					"maximum" : 800,
					"minimum" : 2,
					"numinlets" : 1,
					"numoutlets" : 2,
					"outlettype" : [ "", "bang" ],
					"parameter_enable" : 0,
					"patching_rect" : [ 177.569713024282521, 118.060059000000024, 24.0, 19.0 ],
					"presentation" : 1,
					"presentation_rect" : [ 220.026671999999991, 58.75, 32.0, 19.0 ],
					"textcolor" : [ 0.501960784313725, 0.501960784313725, 0.501960784313725, 1.0 ],
					"triangle" : 0,
					"tricolor" : [ 0.75, 0.75, 0.75, 1.0 ]
				}

			}
, 			{
				"box" : 				{
					"bgcolor" : [ 1.0, 1.0, 1.0, 0.0 ],
					"fontface" : 0,
					"fontname" : "Ableton Sans Medium Regular",
					"fontsize" : 9.0,
					"htricolor" : [ 0.87, 0.82, 0.24, 1.0 ],
					"id" : "obj-60",
					"maxclass" : "number",
					"maximum" : 800,
					"minimum" : 2,
					"numinlets" : 1,
					"numoutlets" : 2,
					"outlettype" : [ "", "bang" ],
					"parameter_enable" : 0,
					"patching_rect" : [ 143.284856512141232, 118.060059000000024, 25.0, 19.0 ],
					"presentation" : 1,
					"presentation_rect" : [ 220.026671999999991, 40.375, 32.0, 19.0 ],
					"textcolor" : [ 0.501960784313725, 0.501960784313725, 0.501960784313725, 1.0 ],
					"triangle" : 0,
					"tricolor" : [ 0.75, 0.75, 0.75, 1.0 ]
				}

			}
, 			{
				"box" : 				{
					"bgcolor" : [ 1.0, 1.0, 1.0, 0.0 ],
					"fontface" : 0,
					"fontname" : "Ableton Sans Medium Regular",
					"fontsize" : 9.0,
					"htricolor" : [ 0.87, 0.82, 0.24, 1.0 ],
					"id" : "obj-61",
					"maxclass" : "number",
					"maximum" : 800,
					"minimum" : 2,
					"numinlets" : 1,
					"numoutlets" : 2,
					"outlettype" : [ "", "bang" ],
					"parameter_enable" : 0,
					"patching_rect" : [ 108.999999999999972, 118.060059000000024, 25.0, 19.0 ],
					"presentation" : 1,
					"presentation_rect" : [ 220.026671999999991, 22.0, 32.0, 19.0 ],
					"textcolor" : [ 0.501960784313725, 0.501960784313725, 0.501960784313725, 1.0 ],
					"triangle" : 0,
					"tricolor" : [ 0.75, 0.75, 0.75, 1.0 ]
				}

			}
, 			{
				"box" : 				{
					"bgcolor" : [ 0.0, 0.0, 0.0, 1.0 ],
					"contdata" : 1,
					"ghostbar" : 50,
					"hint" : "feedback percentage",
					"id" : "obj-35",
					"maxclass" : "multislider",
					"numinlets" : 1,
					"numoutlets" : 2,
					"orientation" : 0,
					"outlettype" : [ "", "" ],
					"parameter_enable" : 1,
					"patching_rect" : [ 75.0, 310.060059000000024, 37.0, 25.0 ],
					"presentation" : 1,
					"presentation_rect" : [ 114.026672000000005, 204.399993999999992, 106.0, 147.0 ],
					"saved_attribute_attributes" : 					{
						"valueof" : 						{
							"parameter_initial" : [ 90.0, 90.0, 90.0, 90.0, 90.0, 90.0, 90.0, 90.0 ],
							"parameter_initial_enable" : 1,
							"parameter_invisible" : 1,
							"parameter_longname" : "Feedback",
							"parameter_shortname" : "Feedback",
							"parameter_type" : 3
						}

					}
,
					"setminmax" : [ -99.0, 99.0 ],
					"size" : 8,
					"slidercolor" : [ 0.501960784313725, 0.501960784313725, 0.501960784313725, 1.0 ],
					"spacing" : 3,
					"varname" : "Feedback"
				}

			}
, 			{
				"box" : 				{
					"bgcolor" : [ 1.0, 1.0, 1.0, 0.0 ],
					"fontface" : 0,
					"fontname" : "Ableton Sans Medium Regular",
					"fontsize" : 9.0,
					"htricolor" : [ 0.87, 0.82, 0.24, 1.0 ],
					"id" : "obj-40",
					"maxclass" : "number",
					"numinlets" : 1,
					"numoutlets" : 2,
					"outlettype" : [ "", "bang" ],
					"parameter_enable" : 0,
					"patching_rect" : [ 211.104900662251623, 310.060059000000024, 25.0, 19.0 ],
					"presentation" : 1,
					"presentation_rect" : [ 226.026671999999991, 258.149993999999992, 27.0, 19.0 ],
					"textcolor" : [ 0.501960784313725, 0.501960784313725, 0.501960784313725, 1.0 ],
					"triangle" : 0,
					"tricolor" : [ 0.75, 0.75, 0.75, 1.0 ]
				}

			}
, 			{
				"box" : 				{
					"bgcolor" : [ 1.0, 1.0, 1.0, 0.0 ],
					"fontface" : 0,
					"fontname" : "Ableton Sans Medium Regular",
					"fontsize" : 9.0,
					"htricolor" : [ 0.87, 0.82, 0.24, 1.0 ],
					"id" : "obj-41",
					"maxclass" : "number",
					"numinlets" : 1,
					"numoutlets" : 2,
					"outlettype" : [ "", "bang" ],
					"parameter_enable" : 0,
					"patching_rect" : [ 177.569713024282549, 310.060059000000024, 24.0, 19.0 ],
					"presentation" : 1,
					"presentation_rect" : [ 226.026671999999991, 239.899993999999992, 27.0, 19.0 ],
					"textcolor" : [ 0.501960784313725, 0.501960784313725, 0.501960784313725, 1.0 ],
					"triangle" : 0,
					"tricolor" : [ 0.75, 0.75, 0.75, 1.0 ]
				}

			}
, 			{
				"box" : 				{
					"bgcolor" : [ 1.0, 1.0, 1.0, 0.0 ],
					"fontface" : 0,
					"fontname" : "Ableton Sans Medium Regular",
					"fontsize" : 9.0,
					"htricolor" : [ 0.87, 0.82, 0.24, 1.0 ],
					"id" : "obj-42",
					"maxclass" : "number",
					"numinlets" : 1,
					"numoutlets" : 2,
					"outlettype" : [ "", "bang" ],
					"parameter_enable" : 0,
					"patching_rect" : [ 143.284856512141289, 310.060059000000024, 25.0, 19.0 ],
					"presentation" : 1,
					"presentation_rect" : [ 226.026671999999991, 221.649993999999992, 27.0, 19.0 ],
					"textcolor" : [ 0.501960784313725, 0.501960784313725, 0.501960784313725, 1.0 ],
					"triangle" : 0,
					"tricolor" : [ 0.75, 0.75, 0.75, 1.0 ]
				}

			}
, 			{
				"box" : 				{
					"bgcolor" : [ 1.0, 1.0, 1.0, 0.0 ],
					"fontface" : 0,
					"fontname" : "Ableton Sans Medium Regular",
					"fontsize" : 9.0,
					"htricolor" : [ 0.87, 0.82, 0.24, 1.0 ],
					"id" : "obj-43",
					"maxclass" : "number",
					"numinlets" : 1,
					"numoutlets" : 2,
					"outlettype" : [ "", "bang" ],
					"parameter_enable" : 0,
					"patching_rect" : [ 109.0, 310.060059000000024, 25.0, 19.0 ],
					"presentation" : 1,
					"presentation_rect" : [ 226.026671999999991, 203.399993999999992, 27.0, 19.0 ],
					"textcolor" : [ 0.501960784313725, 0.501960784313725, 0.501960784313725, 1.0 ],
					"triangle" : 0,
					"tricolor" : [ 0.75, 0.75, 0.75, 1.0 ]
				}

			}
, 			{
				"box" : 				{
					"color" : [ 0.215686, 0.498039, 0.8, 1.0 ],
					"fontname" : "Ableton Sans Medium",
					"fontsize" : 11.0,
					"id" : "obj-6",
					"maxclass" : "newobj",
					"numinlets" : 1,
					"numoutlets" : 2,
					"outlettype" : [ "float", "bang" ],
					"patching_rect" : [ 739.099999999999, 601.0, 107.0, 22.0 ],
					"text" : "buffer~ carre carre"
				}

			}
, 			{
				"box" : 				{
					"bgcolor" : [ 0.0, 0.0, 0.0, 1.0 ],
					"contdata" : 1,
					"ghostbar" : 50,
					"hint" : "time between each repetition",
					"id" : "obj-3",
					"maxclass" : "multislider",
					"numinlets" : 1,
					"numoutlets" : 2,
					"orientation" : 0,
					"outlettype" : [ "", "" ],
					"parameter_enable" : 1,
					"patching_rect" : [ 615.0, 117.0, 34.0, 24.0 ],
					"presentation" : 1,
					"presentation_rect" : [ 256.026671999999962, 23.0, 101.0, 147.0 ],
					"saved_attribute_attributes" : 					{
						"valueof" : 						{
							"parameter_initial" : [ 190.0, 100.0, 150.0, 110.0, 180.0, 210.0, 140.0, 160.0 ],
							"parameter_initial_enable" : 1,
							"parameter_invisible" : 1,
							"parameter_longname" : "Shuff-Del-time",
							"parameter_shortname" : "Shuff-Del-time",
							"parameter_type" : 3
						}

					}
,
					"setminmax" : [ 2.0, 800.0 ],
					"size" : 8,
					"slidercolor" : [ 0.501960784313725, 0.501960784313725, 0.501960784313725, 1.0 ],
					"spacing" : 3,
					"varname" : "Shuff-Del-time"
				}

			}
, 			{
				"box" : 				{
					"bgcolor" : [ 1.0, 1.0, 1.0, 0.0 ],
					"fontface" : 0,
					"fontname" : "Ableton Sans Medium Regular",
					"fontsize" : 9.0,
					"htricolor" : [ 0.87, 0.82, 0.24, 1.0 ],
					"id" : "obj-25",
					"maxclass" : "number",
					"maximum" : 800,
					"minimum" : 0,
					"numinlets" : 1,
					"numoutlets" : 2,
					"outlettype" : [ "", "bang" ],
					"parameter_enable" : 0,
					"patching_rect" : [ 751.646092715231816, 117.0, 25.0, 19.0 ],
					"presentation" : 1,
					"presentation_rect" : [ 359.026671999999962, 78.0, 32.0, 19.0 ],
					"textcolor" : [ 0.501960784313725, 0.501960784313725, 0.501960784313725, 1.0 ],
					"triangle" : 0,
					"tricolor" : [ 0.75, 0.75, 0.75, 1.0 ]
				}

			}
, 			{
				"box" : 				{
					"bgcolor" : [ 1.0, 1.0, 1.0, 0.0 ],
					"fontface" : 0,
					"fontname" : "Ableton Sans Medium Regular",
					"fontsize" : 9.0,
					"htricolor" : [ 0.87, 0.82, 0.24, 1.0 ],
					"id" : "obj-24",
					"maxclass" : "number",
					"maximum" : 800,
					"minimum" : 0,
					"numinlets" : 1,
					"numoutlets" : 2,
					"outlettype" : [ "", "bang" ],
					"parameter_enable" : 0,
					"patching_rect" : [ 717.933156732891803, 117.0, 24.0, 19.0 ],
					"presentation" : 1,
					"presentation_rect" : [ 359.026671999999962, 59.0, 32.0, 19.0 ],
					"textcolor" : [ 0.501960784313725, 0.501960784313725, 0.501960784313725, 1.0 ],
					"triangle" : 0,
					"tricolor" : [ 0.75, 0.75, 0.75, 1.0 ]
				}

			}
, 			{
				"box" : 				{
					"bgcolor" : [ 1.0, 1.0, 1.0, 0.0 ],
					"fontface" : 0,
					"fontname" : "Ableton Sans Medium Regular",
					"fontsize" : 9.0,
					"htricolor" : [ 0.87, 0.82, 0.24, 1.0 ],
					"id" : "obj-23",
					"maxclass" : "number",
					"maximum" : 800,
					"minimum" : 0,
					"numinlets" : 1,
					"numoutlets" : 2,
					"outlettype" : [ "", "bang" ],
					"parameter_enable" : 0,
					"patching_rect" : [ 683.466578366445901, 117.0, 25.0, 19.0 ],
					"presentation" : 1,
					"presentation_rect" : [ 359.026671999999962, 40.0, 32.0, 19.0 ],
					"textcolor" : [ 0.501960784313725, 0.501960784313725, 0.501960784313725, 1.0 ],
					"triangle" : 0,
					"tricolor" : [ 0.75, 0.75, 0.75, 1.0 ]
				}

			}
, 			{
				"box" : 				{
					"bgcolor" : [ 1.0, 1.0, 1.0, 0.0 ],
					"fontface" : 0,
					"fontname" : "Ableton Sans Medium Regular",
					"fontsize" : 9.0,
					"htricolor" : [ 0.87, 0.82, 0.24, 1.0 ],
					"id" : "obj-22",
					"maxclass" : "number",
					"maximum" : 800,
					"minimum" : 0,
					"numinlets" : 1,
					"numoutlets" : 2,
					"outlettype" : [ "", "bang" ],
					"parameter_enable" : 0,
					"patching_rect" : [ 649.0, 117.0, 25.0, 19.0 ],
					"presentation" : 1,
					"presentation_rect" : [ 359.026671999999962, 21.0, 32.0, 19.0 ],
					"textcolor" : [ 0.501960784313725, 0.501960784313725, 0.501960784313725, 1.0 ],
					"triangle" : 0,
					"tricolor" : [ 0.75, 0.75, 0.75, 1.0 ]
				}

			}
, 			{
				"box" : 				{
					"angle" : 0.0,
					"bgcolor" : [ 0.0, 0.0, 0.0, 1.0 ],
					"border" : 1,
					"bordercolor" : [ 0.501960784313725, 0.501960784313725, 0.501960784313725, 1.0 ],
					"id" : "obj-159",
					"maxclass" : "panel",
					"mode" : 0,
					"numinlets" : 1,
					"numoutlets" : 0,
					"patching_rect" : [ 838.099999999999227, 767.0, 34.0, 24.0 ],
					"presentation" : 1,
					"presentation_rect" : [ 256.026671999999962, 203.399993999999992, 135.0, 150.0 ],
					"proportion" : 0.39,
					"prototypename" : "M4L.horizontal-black",
					"rounded" : 0
				}

			}
, 			{
				"box" : 				{
					"angle" : 0.0,
					"bgcolor" : [ 0.0, 0.0, 0.0, 1.0 ],
					"border" : 1,
					"bordercolor" : [ 0.501960784313725, 0.501960784313725, 0.501960784313725, 1.0 ],
					"id" : "obj-156",
					"maxclass" : "panel",
					"mode" : 0,
					"numinlets" : 1,
					"numoutlets" : 0,
					"patching_rect" : [ 802.099999999999227, 767.0, 34.0, 24.0 ],
					"presentation" : 1,
					"presentation_rect" : [ 113.026672000000005, 203.399993999999992, 139.0, 150.0 ],
					"proportion" : 0.39,
					"prototypename" : "M4L.horizontal-black",
					"rounded" : 0
				}

			}
, 			{
				"box" : 				{
					"angle" : 0.0,
					"bgcolor" : [ 0.0, 0.0, 0.0, 1.0 ],
					"border" : 1,
					"bordercolor" : [ 0.501960784313725, 0.501960784313725, 0.501960784313725, 1.0 ],
					"id" : "obj-155",
					"maxclass" : "panel",
					"mode" : 0,
					"numinlets" : 1,
					"numoutlets" : 0,
					"patching_rect" : [ 766.766666666665742, 767.0, 34.0, 24.0 ],
					"presentation" : 1,
					"presentation_rect" : [ 112.518799000000001, 22.0, 139.0, 149.0 ],
					"proportion" : 0.39,
					"prototypename" : "M4L.horizontal-black",
					"rounded" : 0
				}

			}
, 			{
				"box" : 				{
					"angle" : 0.0,
					"bgcolor" : [ 0.0, 0.0, 0.0, 1.0 ],
					"border" : 1,
					"bordercolor" : [ 0.501960784313725, 0.501960784313725, 0.501960784313725, 1.0 ],
					"id" : "obj-154",
					"maxclass" : "panel",
					"mode" : 0,
					"numinlets" : 1,
					"numoutlets" : 0,
					"patching_rect" : [ 730.766666666665742, 767.0, 34.0, 24.0 ],
					"presentation" : 1,
					"presentation_rect" : [ 255.026671999999991, 22.0, 138.999999999999972, 149.0 ],
					"proportion" : 0.39,
					"prototypename" : "M4L.horizontal-black",
					"rounded" : 0
				}

			}
, 			{
				"box" : 				{
					"angle" : 270.0,
					"background" : 1,
					"bgcolor" : [ 0.062147818505764, 0.070864260196686, 0.082519225776196, 1.0 ],
					"border" : 1,
					"bordercolor" : [ 0.541176470588235, 0.541176470588235, 0.541176470588235, 1.0 ],
					"id" : "obj-44",
					"maxclass" : "panel",
					"mode" : 0,
					"numinlets" : 1,
					"numoutlets" : 0,
					"patching_rect" : [ 877.099999999999, 767.0, 30.0, 30.0 ],
					"presentation" : 1,
					"presentation_rect" : [ 6.026671999999905, 5.0, 394.0, 368.399993999999992 ],
					"proportion" : 0.5,
					"prototypename" : "m-darkpanel",
					"rounded" : 0
				}

			}
 ],
		"lines" : [ 			{
				"patchline" : 				{
					"destination" : [ "obj-117", 8 ],
					"source" : [ "obj-1", 0 ]
				}

			}
, 			{
				"patchline" : 				{
					"destination" : [ "obj-193", 8 ],
					"source" : [ "obj-10", 0 ]
				}

			}
, 			{
				"patchline" : 				{
					"destination" : [ "obj-193", 5 ],
					"source" : [ "obj-105", 0 ]
				}

			}
, 			{
				"patchline" : 				{
					"destination" : [ "obj-1", 0 ],
					"source" : [ "obj-107", 8 ]
				}

			}
, 			{
				"patchline" : 				{
					"destination" : [ "obj-118", 0 ],
					"source" : [ "obj-107", 6 ]
				}

			}
, 			{
				"patchline" : 				{
					"destination" : [ "obj-119", 0 ],
					"source" : [ "obj-107", 5 ]
				}

			}
, 			{
				"patchline" : 				{
					"destination" : [ "obj-5", 0 ],
					"source" : [ "obj-107", 7 ]
				}

			}
, 			{
				"patchline" : 				{
					"destination" : [ "obj-53", 0 ],
					"source" : [ "obj-107", 0 ]
				}

			}
, 			{
				"patchline" : 				{
					"destination" : [ "obj-58", 0 ],
					"source" : [ "obj-107", 4 ]
				}

			}
, 			{
				"patchline" : 				{
					"destination" : [ "obj-59", 0 ],
					"source" : [ "obj-107", 3 ]
				}

			}
, 			{
				"patchline" : 				{
					"destination" : [ "obj-60", 0 ],
					"source" : [ "obj-107", 2 ]
				}

			}
, 			{
				"patchline" : 				{
					"destination" : [ "obj-61", 0 ],
					"source" : [ "obj-107", 1 ]
				}

			}
, 			{
				"patchline" : 				{
					"destination" : [ "obj-193", 7 ],
					"source" : [ "obj-11", 0 ]
				}

			}
, 			{
				"patchline" : 				{
					"destination" : [ "obj-4", 3 ],
					"source" : [ "obj-117", 1 ]
				}

			}
, 			{
				"patchline" : 				{
					"destination" : [ "obj-53", 0 ],
					"midpoints" : [ 84.5, 187.060059000000024, 41.5, 187.060059000000024, 41.5, 110.060059000000024, 84.5, 110.060059000000024 ],
					"source" : [ "obj-117", 0 ]
				}

			}
, 			{
				"patchline" : 				{
					"destination" : [ "obj-117", 6 ],
					"source" : [ "obj-118", 0 ]
				}

			}
, 			{
				"patchline" : 				{
					"destination" : [ "obj-117", 5 ],
					"source" : [ "obj-119", 0 ]
				}

			}
, 			{
				"patchline" : 				{
					"destination" : [ "obj-147", 8 ],
					"source" : [ "obj-12", 0 ]
				}

			}
, 			{
				"patchline" : 				{
					"destination" : [ "obj-147", 7 ],
					"source" : [ "obj-13", 0 ]
				}

			}
, 			{
				"patchline" : 				{
					"destination" : [ "obj-13", 0 ],
					"source" : [ "obj-135", 7 ]
				}

			}
, 			{
				"patchline" : 				{
					"destination" : [ "obj-142", 0 ],
					"source" : [ "obj-135", 6 ]
				}

			}
, 			{
				"patchline" : 				{
					"destination" : [ "obj-143", 0 ],
					"source" : [ "obj-135", 5 ]
				}

			}
, 			{
				"patchline" : 				{
					"destination" : [ "obj-35", 0 ],
					"source" : [ "obj-135", 0 ]
				}

			}
, 			{
				"patchline" : 				{
					"destination" : [ "obj-40", 0 ],
					"source" : [ "obj-135", 4 ]
				}

			}
, 			{
				"patchline" : 				{
					"destination" : [ "obj-41", 0 ],
					"source" : [ "obj-135", 3 ]
				}

			}
, 			{
				"patchline" : 				{
					"destination" : [ "obj-42", 0 ],
					"source" : [ "obj-135", 2 ]
				}

			}
, 			{
				"patchline" : 				{
					"destination" : [ "obj-43", 0 ],
					"source" : [ "obj-135", 1 ]
				}

			}
, 			{
				"patchline" : 				{
					"destination" : [ "obj-19", 0 ],
					"source" : [ "obj-14", 0 ]
				}

			}
, 			{
				"patchline" : 				{
					"destination" : [ "obj-147", 6 ],
					"source" : [ "obj-142", 0 ]
				}

			}
, 			{
				"patchline" : 				{
					"destination" : [ "obj-147", 5 ],
					"source" : [ "obj-143", 0 ]
				}

			}
, 			{
				"patchline" : 				{
					"destination" : [ "obj-35", 0 ],
					"midpoints" : [ 84.5, 382.060059000000024, 39.5, 382.060059000000024, 39.5, 302.060059000000024, 84.5, 302.060059000000024 ],
					"source" : [ "obj-147", 0 ]
				}

			}
, 			{
				"patchline" : 				{
					"destination" : [ "obj-4", 2 ],
					"source" : [ "obj-147", 1 ]
				}

			}
, 			{
				"patchline" : 				{
					"destination" : [ "obj-12", 0 ],
					"order" : 0,
					"source" : [ "obj-15", 0 ]
				}

			}
, 			{
				"patchline" : 				{
					"destination" : [ "obj-13", 0 ],
					"order" : 1,
					"source" : [ "obj-15", 0 ]
				}

			}
, 			{
				"patchline" : 				{
					"destination" : [ "obj-142", 0 ],
					"hidden" : 1,
					"order" : 2,
					"source" : [ "obj-15", 0 ]
				}

			}
, 			{
				"patchline" : 				{
					"destination" : [ "obj-143", 0 ],
					"hidden" : 1,
					"order" : 3,
					"source" : [ "obj-15", 0 ]
				}

			}
, 			{
				"patchline" : 				{
					"destination" : [ "obj-40", 0 ],
					"hidden" : 1,
					"order" : 4,
					"source" : [ "obj-15", 0 ]
				}

			}
, 			{
				"patchline" : 				{
					"destination" : [ "obj-41", 0 ],
					"hidden" : 1,
					"order" : 5,
					"source" : [ "obj-15", 0 ]
				}

			}
, 			{
				"patchline" : 				{
					"destination" : [ "obj-42", 0 ],
					"hidden" : 1,
					"order" : 6,
					"source" : [ "obj-15", 0 ]
				}

			}
, 			{
				"patchline" : 				{
					"destination" : [ "obj-43", 0 ],
					"hidden" : 1,
					"order" : 7,
					"source" : [ "obj-15", 0 ]
				}

			}
, 			{
				"patchline" : 				{
					"destination" : [ "obj-182", 6 ],
					"source" : [ "obj-151", 0 ]
				}

			}
, 			{
				"patchline" : 				{
					"destination" : [ "obj-182", 5 ],
					"source" : [ "obj-152", 0 ]
				}

			}
, 			{
				"patchline" : 				{
					"destination" : [ "obj-151", 0 ],
					"hidden" : 1,
					"order" : 2,
					"source" : [ "obj-16", 0 ]
				}

			}
, 			{
				"patchline" : 				{
					"destination" : [ "obj-152", 0 ],
					"hidden" : 1,
					"order" : 3,
					"source" : [ "obj-16", 0 ]
				}

			}
, 			{
				"patchline" : 				{
					"destination" : [ "obj-22", 0 ],
					"hidden" : 1,
					"order" : 7,
					"source" : [ "obj-16", 0 ]
				}

			}
, 			{
				"patchline" : 				{
					"destination" : [ "obj-23", 0 ],
					"hidden" : 1,
					"order" : 6,
					"source" : [ "obj-16", 0 ]
				}

			}
, 			{
				"patchline" : 				{
					"destination" : [ "obj-24", 0 ],
					"hidden" : 1,
					"order" : 5,
					"source" : [ "obj-16", 0 ]
				}

			}
, 			{
				"patchline" : 				{
					"destination" : [ "obj-25", 0 ],
					"hidden" : 1,
					"order" : 4,
					"source" : [ "obj-16", 0 ]
				}

			}
, 			{
				"patchline" : 				{
					"destination" : [ "obj-7", 0 ],
					"order" : 0,
					"source" : [ "obj-16", 0 ]
				}

			}
, 			{
				"patchline" : 				{
					"destination" : [ "obj-8", 0 ],
					"order" : 1,
					"source" : [ "obj-16", 0 ]
				}

			}
, 			{
				"patchline" : 				{
					"destination" : [ "obj-26", 0 ],
					"source" : [ "obj-160", 0 ]
				}

			}
, 			{
				"patchline" : 				{
					"destination" : [ "obj-10", 0 ],
					"order" : 0,
					"source" : [ "obj-17", 0 ]
				}

			}
, 			{
				"patchline" : 				{
					"destination" : [ "obj-105", 0 ],
					"hidden" : 1,
					"order" : 3,
					"source" : [ "obj-17", 0 ]
				}

			}
, 			{
				"patchline" : 				{
					"destination" : [ "obj-11", 0 ],
					"order" : 1,
					"source" : [ "obj-17", 0 ]
				}

			}
, 			{
				"patchline" : 				{
					"destination" : [ "obj-76", 0 ],
					"hidden" : 1,
					"order" : 4,
					"source" : [ "obj-17", 0 ]
				}

			}
, 			{
				"patchline" : 				{
					"destination" : [ "obj-77", 0 ],
					"hidden" : 1,
					"order" : 5,
					"source" : [ "obj-17", 0 ]
				}

			}
, 			{
				"patchline" : 				{
					"destination" : [ "obj-78", 0 ],
					"hidden" : 1,
					"order" : 6,
					"source" : [ "obj-17", 0 ]
				}

			}
, 			{
				"patchline" : 				{
					"destination" : [ "obj-79", 0 ],
					"hidden" : 1,
					"order" : 7,
					"source" : [ "obj-17", 0 ]
				}

			}
, 			{
				"patchline" : 				{
					"destination" : [ "obj-96", 0 ],
					"hidden" : 1,
					"order" : 2,
					"source" : [ "obj-17", 0 ]
				}

			}
, 			{
				"patchline" : 				{
					"destination" : [ "obj-1", 0 ],
					"order" : 0,
					"source" : [ "obj-18", 0 ]
				}

			}
, 			{
				"patchline" : 				{
					"destination" : [ "obj-118", 0 ],
					"hidden" : 1,
					"order" : 2,
					"source" : [ "obj-18", 0 ]
				}

			}
, 			{
				"patchline" : 				{
					"destination" : [ "obj-119", 0 ],
					"hidden" : 1,
					"order" : 3,
					"source" : [ "obj-18", 0 ]
				}

			}
, 			{
				"patchline" : 				{
					"destination" : [ "obj-5", 0 ],
					"order" : 1,
					"source" : [ "obj-18", 0 ]
				}

			}
, 			{
				"patchline" : 				{
					"destination" : [ "obj-58", 0 ],
					"hidden" : 1,
					"order" : 4,
					"source" : [ "obj-18", 0 ]
				}

			}
, 			{
				"patchline" : 				{
					"destination" : [ "obj-59", 0 ],
					"hidden" : 1,
					"order" : 5,
					"source" : [ "obj-18", 0 ]
				}

			}
, 			{
				"patchline" : 				{
					"destination" : [ "obj-60", 0 ],
					"hidden" : 1,
					"order" : 6,
					"source" : [ "obj-18", 0 ]
				}

			}
, 			{
				"patchline" : 				{
					"destination" : [ "obj-61", 0 ],
					"hidden" : 1,
					"order" : 7,
					"source" : [ "obj-18", 0 ]
				}

			}
, 			{
				"patchline" : 				{
					"destination" : [ "obj-3", 0 ],
					"midpoints" : [ 624.5, 186.0, 585.75, 186.0, 585.75, 109.0, 624.5, 109.0 ],
					"source" : [ "obj-182", 0 ]
				}

			}
, 			{
				"patchline" : 				{
					"destination" : [ "obj-4", 1 ],
					"source" : [ "obj-182", 1 ]
				}

			}
, 			{
				"patchline" : 				{
					"destination" : [ "obj-4", 4 ],
					"source" : [ "obj-193", 1 ]
				}

			}
, 			{
				"patchline" : 				{
					"destination" : [ "obj-71", 0 ],
					"midpoints" : [ 624.5, 385.0, 590.5, 385.0, 590.5, 302.0, 624.5, 302.0 ],
					"source" : [ "obj-193", 0 ]
				}

			}
, 			{
				"patchline" : 				{
					"destination" : [ "obj-9", 0 ],
					"source" : [ "obj-2", 0 ]
				}

			}
, 			{
				"patchline" : 				{
					"destination" : [ "obj-14", 2 ],
					"source" : [ "obj-20", 0 ]
				}

			}
, 			{
				"patchline" : 				{
					"destination" : [ "obj-53", 0 ],
					"source" : [ "obj-21", 1 ]
				}

			}
, 			{
				"patchline" : 				{
					"destination" : [ "obj-182", 1 ],
					"source" : [ "obj-22", 0 ]
				}

			}
, 			{
				"patchline" : 				{
					"destination" : [ "obj-182", 2 ],
					"source" : [ "obj-23", 0 ]
				}

			}
, 			{
				"patchline" : 				{
					"destination" : [ "obj-241", 0 ],
					"source" : [ "obj-239", 0 ]
				}

			}
, 			{
				"patchline" : 				{
					"destination" : [ "obj-182", 3 ],
					"source" : [ "obj-24", 0 ]
				}

			}
, 			{
				"patchline" : 				{
					"destination" : [ "obj-239", 0 ],
					"source" : [ "obj-240", 0 ]
				}

			}
, 			{
				"patchline" : 				{
					"destination" : [ "obj-239", 1 ],
					"source" : [ "obj-241", 3 ]
				}

			}
, 			{
				"patchline" : 				{
					"destination" : [ "obj-30", 0 ],
					"source" : [ "obj-241", 1 ]
				}

			}
, 			{
				"patchline" : 				{
					"destination" : [ "obj-182", 4 ],
					"source" : [ "obj-25", 0 ]
				}

			}
, 			{
				"patchline" : 				{
					"destination" : [ "obj-94", 0 ],
					"source" : [ "obj-26", 0 ]
				}

			}
, 			{
				"patchline" : 				{
					"destination" : [ "obj-3", 0 ],
					"source" : [ "obj-27", 1 ]
				}

			}
, 			{
				"patchline" : 				{
					"destination" : [ "obj-71", 0 ],
					"source" : [ "obj-28", 1 ]
				}

			}
, 			{
				"patchline" : 				{
					"destination" : [ "obj-35", 0 ],
					"source" : [ "obj-29", 1 ]
				}

			}
, 			{
				"patchline" : 				{
					"destination" : [ "obj-182", 0 ],
					"order" : 0,
					"source" : [ "obj-3", 0 ]
				}

			}
, 			{
				"patchline" : 				{
					"destination" : [ "obj-56", 0 ],
					"midpoints" : [ 624.5, 150.0, 593.0, 150.0, 593.0, 22.0, 624.5, 22.0 ],
					"order" : 1,
					"source" : [ "obj-3", 0 ]
				}

			}
, 			{
				"patchline" : 				{
					"destination" : [ "obj-32", 0 ],
					"order" : 0,
					"source" : [ "obj-30", 0 ]
				}

			}
, 			{
				"patchline" : 				{
					"destination" : [ "obj-33", 0 ],
					"order" : 0,
					"source" : [ "obj-30", 1 ]
				}

			}
, 			{
				"patchline" : 				{
					"destination" : [ "obj-34", 0 ],
					"order" : 0,
					"source" : [ "obj-30", 2 ]
				}

			}
, 			{
				"patchline" : 				{
					"destination" : [ "obj-36", 0 ],
					"order" : 0,
					"source" : [ "obj-30", 3 ]
				}

			}
, 			{
				"patchline" : 				{
					"destination" : [ "obj-38", 0 ],
					"order" : 0,
					"source" : [ "obj-30", 4 ]
				}

			}
, 			{
				"patchline" : 				{
					"destination" : [ "obj-39", 0 ],
					"order" : 0,
					"source" : [ "obj-30", 5 ]
				}

			}
, 			{
				"patchline" : 				{
					"destination" : [ "obj-45", 0 ],
					"order" : 0,
					"source" : [ "obj-30", 6 ]
				}

			}
, 			{
				"patchline" : 				{
					"destination" : [ "obj-54", 0 ],
					"order" : 0,
					"source" : [ "obj-30", 7 ]
				}

			}
, 			{
				"patchline" : 				{
					"destination" : [ "obj-69", 7 ],
					"order" : 1,
					"source" : [ "obj-30", 7 ]
				}

			}
, 			{
				"patchline" : 				{
					"destination" : [ "obj-69", 6 ],
					"order" : 1,
					"source" : [ "obj-30", 6 ]
				}

			}
, 			{
				"patchline" : 				{
					"destination" : [ "obj-69", 5 ],
					"order" : 1,
					"source" : [ "obj-30", 5 ]
				}

			}
, 			{
				"patchline" : 				{
					"destination" : [ "obj-69", 4 ],
					"order" : 1,
					"source" : [ "obj-30", 4 ]
				}

			}
, 			{
				"patchline" : 				{
					"destination" : [ "obj-69", 3 ],
					"order" : 1,
					"source" : [ "obj-30", 3 ]
				}

			}
, 			{
				"patchline" : 				{
					"destination" : [ "obj-69", 2 ],
					"order" : 1,
					"source" : [ "obj-30", 2 ]
				}

			}
, 			{
				"patchline" : 				{
					"destination" : [ "obj-69", 1 ],
					"order" : 1,
					"source" : [ "obj-30", 1 ]
				}

			}
, 			{
				"patchline" : 				{
					"destination" : [ "obj-69", 0 ],
					"order" : 1,
					"source" : [ "obj-30", 0 ]
				}

			}
, 			{
				"patchline" : 				{
					"destination" : [ "obj-73", 0 ],
					"source" : [ "obj-30", 9 ]
				}

			}
, 			{
				"patchline" : 				{
					"destination" : [ "obj-160", 0 ],
					"source" : [ "obj-31", 1 ]
				}

			}
, 			{
				"patchline" : 				{
					"destination" : [ "obj-135", 0 ],
					"midpoints" : [ 84.5, 344.060059000000024, 54.5, 344.060059000000024, 54.5, 207.0, 84.5, 207.0 ],
					"order" : 1,
					"source" : [ "obj-35", 0 ]
				}

			}
, 			{
				"patchline" : 				{
					"destination" : [ "obj-147", 0 ],
					"order" : 0,
					"source" : [ "obj-35", 0 ]
				}

			}
, 			{
				"patchline" : 				{
					"destination" : [ "obj-4", 0 ],
					"source" : [ "obj-37", 0 ]
				}

			}
, 			{
				"patchline" : 				{
					"destination" : [ "obj-30", 7 ],
					"source" : [ "obj-4", 7 ]
				}

			}
, 			{
				"patchline" : 				{
					"destination" : [ "obj-30", 6 ],
					"source" : [ "obj-4", 6 ]
				}

			}
, 			{
				"patchline" : 				{
					"destination" : [ "obj-30", 5 ],
					"source" : [ "obj-4", 5 ]
				}

			}
, 			{
				"patchline" : 				{
					"destination" : [ "obj-30", 4 ],
					"source" : [ "obj-4", 4 ]
				}

			}
, 			{
				"patchline" : 				{
					"destination" : [ "obj-30", 3 ],
					"source" : [ "obj-4", 3 ]
				}

			}
, 			{
				"patchline" : 				{
					"destination" : [ "obj-30", 2 ],
					"source" : [ "obj-4", 2 ]
				}

			}
, 			{
				"patchline" : 				{
					"destination" : [ "obj-30", 1 ],
					"source" : [ "obj-4", 1 ]
				}

			}
, 			{
				"patchline" : 				{
					"destination" : [ "obj-30", 0 ],
					"source" : [ "obj-4", 0 ]
				}

			}
, 			{
				"patchline" : 				{
					"destination" : [ "obj-147", 4 ],
					"source" : [ "obj-40", 0 ]
				}

			}
, 			{
				"patchline" : 				{
					"destination" : [ "obj-147", 3 ],
					"source" : [ "obj-41", 0 ]
				}

			}
, 			{
				"patchline" : 				{
					"destination" : [ "obj-147", 2 ],
					"source" : [ "obj-42", 0 ]
				}

			}
, 			{
				"patchline" : 				{
					"destination" : [ "obj-147", 1 ],
					"source" : [ "obj-43", 0 ]
				}

			}
, 			{
				"patchline" : 				{
					"destination" : [ "obj-50", 0 ],
					"source" : [ "obj-48", 0 ]
				}

			}
, 			{
				"patchline" : 				{
					"destination" : [ "obj-117", 7 ],
					"source" : [ "obj-5", 0 ]
				}

			}
, 			{
				"patchline" : 				{
					"destination" : [ "obj-46", 0 ],
					"source" : [ "obj-50", 0 ]
				}

			}
, 			{
				"patchline" : 				{
					"destination" : [ "obj-107", 0 ],
					"midpoints" : [ 84.5, 152.060059000000024, 51.5, 152.060059000000024, 51.5, 24.0, 84.5, 24.0 ],
					"order" : 1,
					"source" : [ "obj-53", 0 ]
				}

			}
, 			{
				"patchline" : 				{
					"destination" : [ "obj-117", 0 ],
					"order" : 0,
					"source" : [ "obj-53", 0 ]
				}

			}
, 			{
				"patchline" : 				{
					"destination" : [ "obj-151", 0 ],
					"source" : [ "obj-56", 6 ]
				}

			}
, 			{
				"patchline" : 				{
					"destination" : [ "obj-152", 0 ],
					"source" : [ "obj-56", 5 ]
				}

			}
, 			{
				"patchline" : 				{
					"destination" : [ "obj-22", 0 ],
					"source" : [ "obj-56", 1 ]
				}

			}
, 			{
				"patchline" : 				{
					"destination" : [ "obj-23", 0 ],
					"source" : [ "obj-56", 2 ]
				}

			}
, 			{
				"patchline" : 				{
					"destination" : [ "obj-24", 0 ],
					"source" : [ "obj-56", 3 ]
				}

			}
, 			{
				"patchline" : 				{
					"destination" : [ "obj-25", 0 ],
					"source" : [ "obj-56", 4 ]
				}

			}
, 			{
				"patchline" : 				{
					"destination" : [ "obj-3", 0 ],
					"source" : [ "obj-56", 0 ]
				}

			}
, 			{
				"patchline" : 				{
					"destination" : [ "obj-7", 0 ],
					"source" : [ "obj-56", 8 ]
				}

			}
, 			{
				"patchline" : 				{
					"destination" : [ "obj-8", 0 ],
					"source" : [ "obj-56", 7 ]
				}

			}
, 			{
				"patchline" : 				{
					"destination" : [ "obj-117", 4 ],
					"source" : [ "obj-58", 0 ]
				}

			}
, 			{
				"patchline" : 				{
					"destination" : [ "obj-117", 3 ],
					"source" : [ "obj-59", 0 ]
				}

			}
, 			{
				"patchline" : 				{
					"destination" : [ "obj-48", 0 ],
					"source" : [ "obj-6", 1 ]
				}

			}
, 			{
				"patchline" : 				{
					"destination" : [ "obj-117", 2 ],
					"source" : [ "obj-60", 0 ]
				}

			}
, 			{
				"patchline" : 				{
					"destination" : [ "obj-117", 1 ],
					"source" : [ "obj-61", 0 ]
				}

			}
, 			{
				"patchline" : 				{
					"destination" : [ "obj-70", 0 ],
					"source" : [ "obj-69", 0 ]
				}

			}
, 			{
				"patchline" : 				{
					"destination" : [ "obj-182", 8 ],
					"source" : [ "obj-7", 0 ]
				}

			}
, 			{
				"patchline" : 				{
					"destination" : [ "obj-193", 0 ],
					"order" : 0,
					"source" : [ "obj-71", 0 ]
				}

			}
, 			{
				"patchline" : 				{
					"destination" : [ "obj-86", 0 ],
					"midpoints" : [ 624.5, 343.0, 596.5, 343.0, 596.5, 212.0, 624.5, 212.0 ],
					"order" : 1,
					"source" : [ "obj-71", 0 ]
				}

			}
, 			{
				"patchline" : 				{
					"destination" : [ "obj-83", 0 ],
					"source" : [ "obj-73", 0 ]
				}

			}
, 			{
				"patchline" : 				{
					"destination" : [ "obj-193", 4 ],
					"source" : [ "obj-76", 0 ]
				}

			}
, 			{
				"patchline" : 				{
					"destination" : [ "obj-193", 3 ],
					"source" : [ "obj-77", 0 ]
				}

			}
, 			{
				"patchline" : 				{
					"destination" : [ "obj-193", 2 ],
					"source" : [ "obj-78", 0 ]
				}

			}
, 			{
				"patchline" : 				{
					"destination" : [ "obj-193", 1 ],
					"source" : [ "obj-79", 0 ]
				}

			}
, 			{
				"patchline" : 				{
					"destination" : [ "obj-182", 7 ],
					"source" : [ "obj-8", 0 ]
				}

			}
, 			{
				"patchline" : 				{
					"destination" : [ "obj-74", 0 ],
					"source" : [ "obj-80", 0 ]
				}

			}
, 			{
				"patchline" : 				{
					"destination" : [ "obj-80", 0 ],
					"source" : [ "obj-82", 0 ]
				}

			}
, 			{
				"patchline" : 				{
					"destination" : [ "obj-82", 0 ],
					"source" : [ "obj-83", 0 ]
				}

			}
, 			{
				"patchline" : 				{
					"destination" : [ "obj-30", 0 ],
					"source" : [ "obj-84", 0 ]
				}

			}
, 			{
				"patchline" : 				{
					"destination" : [ "obj-10", 0 ],
					"source" : [ "obj-86", 8 ]
				}

			}
, 			{
				"patchline" : 				{
					"destination" : [ "obj-105", 0 ],
					"source" : [ "obj-86", 5 ]
				}

			}
, 			{
				"patchline" : 				{
					"destination" : [ "obj-11", 0 ],
					"source" : [ "obj-86", 7 ]
				}

			}
, 			{
				"patchline" : 				{
					"destination" : [ "obj-71", 0 ],
					"source" : [ "obj-86", 0 ]
				}

			}
, 			{
				"patchline" : 				{
					"destination" : [ "obj-76", 0 ],
					"source" : [ "obj-86", 4 ]
				}

			}
, 			{
				"patchline" : 				{
					"destination" : [ "obj-77", 0 ],
					"source" : [ "obj-86", 3 ]
				}

			}
, 			{
				"patchline" : 				{
					"destination" : [ "obj-78", 0 ],
					"source" : [ "obj-86", 2 ]
				}

			}
, 			{
				"patchline" : 				{
					"destination" : [ "obj-79", 0 ],
					"source" : [ "obj-86", 1 ]
				}

			}
, 			{
				"patchline" : 				{
					"destination" : [ "obj-96", 0 ],
					"source" : [ "obj-86", 6 ]
				}

			}
, 			{
				"patchline" : 				{
					"destination" : [ "obj-95", 0 ],
					"source" : [ "obj-9", 0 ]
				}

			}
, 			{
				"patchline" : 				{
					"destination" : [ "obj-2", 0 ],
					"source" : [ "obj-94", 1 ]
				}

			}
, 			{
				"patchline" : 				{
					"destination" : [ "obj-6", 0 ],
					"source" : [ "obj-95", 0 ]
				}

			}
, 			{
				"patchline" : 				{
					"destination" : [ "obj-193", 6 ],
					"source" : [ "obj-96", 0 ]
				}

			}
 ],
		"parameters" : 		{
			"obj-14::obj-18" : [ "live.text[34]", "live.text", 0 ],
			"obj-14::obj-21" : [ "live.text[4]", "live.text", 0 ],
			"obj-14::obj-36" : [ "live.text[7]", "live.text", 0 ],
			"obj-14::obj-38" : [ "live.text[6]", "live.text", 0 ],
			"obj-14::obj-39" : [ "live.text[5]", "live.text", 0 ],
			"obj-14::obj-8" : [ "live.text[33]", "live.text", 0 ],
			"obj-160" : [ "shuffle_windows", "shuffle_windows", 0 ],
			"obj-3" : [ "Shuff-Del-time", "Shuff-Del-time", 0 ],
			"obj-30" : [ "live.gain~[1]", "live.gain~", 0 ],
			"obj-35" : [ "Feedback", "Feedback", 0 ],
			"obj-53" : [ "Shuff-Dur-time", "Shuff-Dur-time", 0 ],
			"obj-71" : [ "Shuff-Prob", "Shuff-Prob", 0 ],
			"parameterbanks" : 			{
				"0" : 				{
					"index" : 0,
					"name" : "",
					"parameters" : [ "-", "-", "-", "-", "-", "-", "-", "-" ]
				}

			}
,
			"inherited_shortname" : 1
		}
,
		"dependency_cache" : [ 			{
				"name" : "SOR.maxpat",
				"bootpath" : "~/Documents/Max 8/Packages/-m-libs/remoting",
				"patcherrelativepath" : "../../../../../Max 8/Packages/-m-libs/remoting",
				"type" : "JSON",
				"implicit" : 1
			}
, 			{
				"name" : "m-lineformat.maxpat",
				"bootpath" : "~/Documents/Max 8/Packages/-m-libs/remoting",
				"patcherrelativepath" : "../../../../../Max 8/Packages/-m-libs/remoting",
				"type" : "JSON",
				"implicit" : 1
			}
, 			{
				"name" : "m-managepattr.maxpat",
				"bootpath" : "~/Documents/Max 8/Packages/-m-libs/saving",
				"patcherrelativepath" : "../../../../../Max 8/Packages/-m-libs/saving",
				"type" : "JSON",
				"implicit" : 1
			}
, 			{
				"name" : "m-meg.maxpat",
				"bootpath" : "~/Documents/Max 8/Packages/-m-libs/remoting",
				"patcherrelativepath" : "../../../../../Max 8/Packages/-m-libs/remoting",
				"type" : "JSON",
				"implicit" : 1
			}
, 			{
				"name" : "m-msramp.maxpat",
				"bootpath" : "~/Documents/Max 8/Packages/-m-libs/remoting",
				"patcherrelativepath" : "../../../../../Max 8/Packages/-m-libs/remoting",
				"type" : "JSON",
				"implicit" : 1
			}
, 			{
				"name" : "m-pattrpaths.maxpat",
				"bootpath" : "~/Documents/Max 8/Packages/-m-libs/saving",
				"patcherrelativepath" : "../../../../../Max 8/Packages/-m-libs/saving",
				"type" : "JSON",
				"implicit" : 1
			}
, 			{
				"name" : "multishuffler~.mxo",
				"type" : "iLaX"
			}
, 			{
				"name" : "sfldel-fmin.maxpat",
				"bootpath" : "~/Documents/__Taaaf/1-MaxMspPatches/-RNBO-arduino-/-build-rnbo-vsts/shuffle-delay/libs",
				"patcherrelativepath" : "./libs",
				"type" : "JSON",
				"implicit" : 1
			}
, 			{
				"name" : "sfldel-fmout.maxpat",
				"bootpath" : "~/Documents/__Taaaf/1-MaxMspPatches/-RNBO-arduino-/-build-rnbo-vsts/shuffle-delay/libs",
				"patcherrelativepath" : "./libs",
				"type" : "JSON",
				"implicit" : 1
			}
 ],
		"autosave" : 0,
		"styles" : [ 			{
				"name" : "maxb-default",
				"default" : 				{
					"fontsize" : [ 11.0 ],
					"locked_bgcolor" : [ 0.490196078431373, 0.490196078431373, 0.490196078431373, 1.0 ],
					"patchlinecolor" : [ 0.0, 0.0, 0.0, 1.0 ],
					"selectioncolor" : [ 0.380392156862745, 0.925490196078431, 0.349019607843137, 0.32 ],
					"textcolor_inverse" : [ 0.992156862745098, 0.992156862745098, 0.992156862745098, 1.0 ]
				}
,
				"parentstyle" : "",
				"multi" : 0
			}
 ],
		"default_bgcolor" : [ 0.168627450980392, 0.168627450980392, 0.168627450980392, 1.0 ],
		"textcolor" : [ 0.0, 0.0, 0.0, 1.0 ],
		"textcolor_inverse" : [ 0.992157, 0.992157, 0.992157, 1.0 ],
		"bgcolor" : [ 0.184313725490196, 0.180392156862745, 0.180392156862745, 1.0 ],
		"editing_bgcolor" : [ 0.184313725490196, 0.180392156862745, 0.180392156862745, 1.0 ],
		"bgfillcolor_type" : "color",
		"bgfillcolor_color1" : [ 0.301961, 0.301961, 0.301961, 1.0 ],
		"bgfillcolor_color2" : [ 0.2, 0.2, 0.2, 1.0 ],
		"bgfillcolor_color" : [ 0.113725490196078, 0.113725490196078, 0.113725490196078, 1.0 ]
	}

}
